<svg width="1440" height="342" viewBox="0 0 1440 342" fill="none" xmlns="http://www.w3.org/2000/svg">
<path d="M1440 341H2.66306e-05L0 0H1440V341Z" fill="#E0F0FF"/>
<path fill-rule="evenodd" clip-rule="evenodd" d="M740.255 147.249H734.61V152.888H740.255V147.249ZM933.104 106.931H924.998V116.213H933.104V106.931ZM950.197 106.931H942.091V116.213H950.197V106.931ZM916.012 135.819H907.907V145.101H916.012V135.819ZM933.104 135.819H924.998V145.101H933.104V135.819ZM950.197 135.819H942.091V145.101H950.197V135.819ZM916.012 164.707H907.907V173.988H916.012V164.707ZM933.104 164.707H924.998V173.988H933.104V164.707ZM950.197 164.707H942.091V173.988H950.197V164.707ZM916.012 193.596H907.907V202.878H916.012V193.596ZM933.104 193.596H924.998V202.878H933.104V193.596ZM950.197 193.596H942.091V202.878H950.197V193.596ZM916.012 222.484H907.907V231.765H916.012V222.484ZM933.104 222.484H924.998V231.765H933.104V222.484ZM950.197 222.484H942.091V231.765H950.197V222.484ZM1048.24 155.13H1039.72V166.345H1048.24V155.13ZM1048.24 171.247H1039.72V182.462H1048.24V171.247ZM1030.74 195.532H1022.23V222.762H1030.74V195.532ZM1048.24 195.532H1039.72V206.746H1048.24V195.532ZM1048.24 211.649H1039.72V222.863H1048.24V211.649ZM1030.74 155.13H1022.23V182.36H1030.74V155.13ZM835.719 137.975H822.412V149.087H835.719V137.975ZM813.427 168.693H800.12V179.804H813.427V168.693ZM835.719 168.693H822.412V179.804H835.719V168.693ZM813.427 199.411H800.12V210.522H813.427V199.411ZM835.719 199.411H822.412V210.522H835.719V199.411ZM813.427 230.128H800.12V241.24H813.427V230.128ZM835.719 230.128H822.412V241.24H835.719V230.128ZM813.427 137.975H800.12V149.087H813.427V137.975ZM1030.74 115.229H1022.23V142.459H1030.74V115.229ZM1048.24 115.229H1039.72V126.444H1048.24V115.229ZM1048.24 131.346H1039.72V142.561H1048.24V131.346ZM916.012 106.932H907.907V116.214H916.012V106.932ZM1108 260.516V244.374H1072.12V62H1063.28V90.5851H1051.04V71.8039H1047V90.5851H998.691V244.375H966.838V88.5597H966.708L948.418 75.2848L930.119 62.0014L911.82 75.2848L893.531 88.5597H893.408V244.375H858.027V140.239C858.027 127.569 847.317 117.136 833.495 115.633V108.526H824.148L819.174 62.0014H817.319L812.344 108.526H802.998V115.633C789.177 117.136 778.466 127.568 778.466 140.239V244.375H760.719H754.103V113.011H749.569L747.682 62.0014H746.53L744.651 113.011H708.469V244.375L679.23 244.237V77.1155H655.842V62.0028H629.179V77.1155H605.799V244.377H572.59V87.5964H563.457V62.0028L496.486 71.6995V87.5964H487.353V244.377H450.107V109.321H442.24V83.7262H421.589V62.0028H417.979V83.7262H408.804V62.0028H405.194V83.7262H384.543V109.321H376.676V244.377H356.276H329.531V62.0028H320.684V90.5879H308.447V71.8067H304.404V90.5879H256.1V244.378H224.246V88.5626H224.116L205.827 75.2876L187.527 62.0042L169.229 75.2876L150.939 88.5626H150.816V244.378H115.435V140.242C115.435 127.572 104.725 117.139 90.9032 115.636V108.529H81.5566L76.5822 62.0042H74.7276L69.7517 108.529H60.4066V115.636C46.5848 117.139 35.8744 127.571 35.8744 140.242V244.378H0V319H1108L1108 260.516ZM190.51 106.932H182.403V116.214H190.51V106.932ZM207.602 106.932H199.497V116.214H207.602V106.932ZM173.417 135.82H165.312V145.102H173.417V135.82ZM190.51 135.82H182.403V145.102H190.51V135.82ZM207.602 135.82H199.497V145.102H207.602V135.82ZM173.417 164.709H165.312V173.989H173.417V164.709ZM190.51 164.709H182.403V173.989H190.51V164.709ZM207.602 164.709H199.497V173.989H207.602V164.709ZM173.417 193.597H165.312V202.879H173.417V193.597ZM190.51 193.597H182.403V202.879H190.51V193.597ZM207.602 193.597H199.497V202.879H207.602V193.597ZM173.417 222.485H165.312V231.766H173.417V222.485ZM190.51 222.485H182.403V231.766H190.51V222.485ZM207.602 222.485H199.497V231.766H207.602V222.485ZM305.642 155.132H297.129V166.346H305.642V155.132ZM305.642 171.249H297.129V182.463H305.642V171.249ZM288.143 195.534H279.632V222.763H288.143V195.534ZM305.642 195.534H297.129V206.748H305.642V195.534ZM305.642 211.65H297.129V222.865H305.642V211.65ZM288.143 155.132H279.632V182.362H288.143V155.132ZM93.1245 137.977H79.8176V149.088H93.1245V137.977ZM70.8321 168.695H57.5252V179.806H70.8321V168.695ZM93.1245 168.695H79.8176V179.806H93.1245V168.695ZM70.8321 199.412H57.5252V210.524H70.8321V199.412ZM93.1245 199.412H79.8176V210.524H93.1245V199.412ZM70.8321 230.13H57.5252V241.241H70.8321V230.13ZM93.1245 230.13H79.8176V241.241H93.1245V230.13ZM70.8321 137.977H57.5252V149.088H70.8321V137.977ZM288.143 115.231H279.632V142.461H288.143V115.231ZM305.642 115.231H297.129V126.445H305.642V115.231ZM305.642 131.348H297.129V142.562H305.642V131.348ZM173.417 106.933H165.312V116.215H173.417V106.933ZM728.075 147.252H722.437V152.891H728.075V147.252ZM740.255 131.809H734.61V137.448H740.255V131.809ZM728.075 131.809H722.437V137.448H728.075V131.809ZM740.255 225.072H734.61V230.711H740.255V225.072ZM728.075 225.072H722.437V230.711H728.075V225.072ZM740.255 209.629H734.61V215.268H740.255V209.629ZM728.075 209.629H722.437V215.268H728.075V209.629ZM740.255 194.187H734.61V199.825H740.255V194.187ZM728.075 194.187H722.437V199.825H728.075V194.187ZM740.255 178.744H734.61V184.383H740.255V178.744ZM728.075 178.744H722.437V184.383H728.075V178.744ZM740.255 163.301H734.61V168.94H740.255V163.301ZM728.075 163.301H722.437V168.94H728.075V163.301ZM537.59 109.942H534.707V142.619H537.59V109.942ZM550.852 109.942H547.969V142.619H550.852V109.942ZM426.375 222.175H417.862V233.389H426.375V222.175ZM426.375 206.06H417.862V217.274H426.375V206.06ZM408.876 206.06H400.365V233.289H408.876V206.06ZM426.375 178.507H417.862V189.721H426.375V178.507ZM426.375 162.39H417.862V173.604H426.375V162.39ZM408.876 162.39H400.365V189.621H408.876V162.39ZM426.375 134.837H417.862V146.052H426.375V134.837ZM426.375 118.722H417.862V129.936H426.375V118.722ZM408.876 118.722H400.365V145.951H408.876V118.722ZM517.842 161.669H509.735V169.775H517.842V161.669ZM534.935 161.669H526.829V169.775H534.935V161.669ZM552.027 161.669H543.921V169.775H552.027V161.669ZM517.842 186.931H509.735V195.037H517.842V186.931ZM534.935 186.931H526.829V195.037H534.935V186.931ZM552.027 186.931H543.921V195.037H552.027V186.931ZM517.842 212.193H509.735V220.301H517.842V212.193ZM534.935 212.193H526.829V220.301H534.935V212.193ZM552.027 212.193H543.921V220.301H552.027V212.193ZM512.273 109.943H509.39V142.62H512.273V109.943ZM525.534 109.943H522.651V142.62H525.534V109.943ZM636.125 92.2635H633.242V124.94H636.125V92.2635ZM622.863 92.2635H619.98V124.94H622.863V92.2635ZM636.125 189.445H633.242V222.123H636.125V189.445ZM622.863 189.445H619.98V222.123H622.863V189.445ZM636.125 140.428H633.242V173.105H636.125V140.428ZM664.938 92.2621H662.055V124.939H664.938V92.2621ZM651.676 92.2621H648.793V124.939H651.676V92.2621ZM664.938 189.443H662.055V222.121H664.938V189.443ZM651.676 189.443H648.793V222.121H651.676V189.443ZM664.938 140.427H662.055V173.104H664.938V140.427ZM651.676 140.427H648.793V173.104H651.676V140.427ZM622.863 140.427H619.98V173.104H622.863V140.427Z" fill="#003B4E" fill-opacity="0.2"/>
<path fill-rule="evenodd" clip-rule="evenodd" d="M1809.25 147.249H1803.61V152.888H1809.25V147.249ZM2002.1 106.931H1994V116.213H2002.1V106.931ZM2019.2 106.931H2011.09V116.213H2019.2V106.931ZM1985.01 135.819H1976.91V145.101H1985.01V135.819ZM2002.1 135.819H1994V145.101H2002.1V135.819ZM2019.2 135.819H2011.09V145.101H2019.2V135.819ZM1985.01 164.707H1976.91V173.988H1985.01V164.707ZM2002.1 164.707H1994V173.988H2002.1V164.707ZM2019.2 164.707H2011.09V173.988H2019.2V164.707ZM1985.01 193.596H1976.91V202.878H1985.01V193.596ZM2002.1 193.596H1994V202.878H2002.1V193.596ZM2019.2 193.596H2011.09V202.878H2019.2V193.596ZM1985.01 222.484H1976.91V231.765H1985.01V222.484ZM2002.1 222.484H1994V231.765H2002.1V222.484ZM2019.2 222.484H2011.09V231.765H2019.2V222.484ZM2117.24 155.13H2108.72V166.345H2117.24V155.13ZM2117.24 171.247H2108.72V182.462H2117.24V171.247ZM2099.74 195.532H2091.23V222.762H2099.74V195.532ZM2117.24 195.532H2108.72V206.746H2117.24V195.532ZM2117.24 211.649H2108.72V222.863H2117.24V211.649ZM2099.74 155.13H2091.23V182.36H2099.74V155.13ZM1904.72 137.975H1891.41V149.087H1904.72V137.975ZM1882.43 168.693H1869.12V179.804H1882.43V168.693ZM1904.72 168.693H1891.41V179.804H1904.72V168.693ZM1882.43 199.411H1869.12V210.522H1882.43V199.411ZM1904.72 199.411H1891.41V210.522H1904.72V199.411ZM1882.43 230.128H1869.12V241.24H1882.43V230.128ZM1904.72 230.128H1891.41V241.24H1904.72V230.128ZM1882.43 137.975H1869.12V149.087H1882.43V137.975ZM2099.74 115.229H2091.23V142.459H2099.74V115.229ZM2117.24 115.229H2108.72V126.444H2117.24V115.229ZM2117.24 131.346H2108.72V142.561H2117.24V131.346ZM1985.01 106.932H1976.91V116.214H1985.01V106.932ZM2177 260.516V244.374H2141.12V62H2132.28V90.5851H2120.04V71.8039H2116V90.5851H2067.69V244.375H2035.84V88.5597H2035.71L2017.42 75.2848L1999.12 62.0014L1980.82 75.2848L1962.53 88.5597H1962.41V244.375H1927.03V140.239C1927.03 127.569 1916.32 117.136 1902.49 115.633V108.526H1893.15L1888.17 62.0014H1886.32L1881.34 108.526H1872V115.633C1858.18 117.136 1847.47 127.568 1847.47 140.239V244.375H1829.72H1823.1V113.011H1818.57L1816.68 62.0014H1815.53L1813.65 113.011H1777.47V244.375L1748.23 244.237V77.1155H1724.84V62.0028H1698.18V77.1155H1674.8V244.377H1641.59V87.5964H1632.46V62.0028L1565.49 71.6995V87.5964H1556.35V244.377H1519.11V109.321H1511.24V83.7262H1490.59V62.0028H1486.98V83.7262H1477.8V62.0028H1474.19V83.7262H1453.54V109.321H1445.68V244.377H1425.28H1398.53V62.0028H1389.68V90.5879H1377.45V71.8067H1373.4V90.5879H1325.1V244.378H1293.25V88.5626H1293.12L1274.83 75.2876L1256.53 62.0042L1238.23 75.2876L1219.94 88.5626H1219.82V244.378H1184.44V140.242C1184.44 127.572 1173.72 117.139 1159.9 115.636V108.529H1150.56L1145.58 62.0042H1143.73L1138.75 108.529H1129.41V115.636C1115.58 117.139 1104.87 127.571 1104.87 140.242V244.378H1069V319H2177L2177 260.516ZM1259.51 106.932H1251.4V116.214H1259.51V106.932ZM1276.6 106.932H1268.5V116.214H1276.6V106.932ZM1242.42 135.82H1234.31V145.102H1242.42V135.82ZM1259.51 135.82H1251.4V145.102H1259.51V135.82ZM1276.6 135.82H1268.5V145.102H1276.6V135.82ZM1242.42 164.709H1234.31V173.989H1242.42V164.709ZM1259.51 164.709H1251.4V173.989H1259.51V164.709ZM1276.6 164.709H1268.5V173.989H1276.6V164.709ZM1242.42 193.597H1234.31V202.879H1242.42V193.597ZM1259.51 193.597H1251.4V202.879H1259.51V193.597ZM1276.6 193.597H1268.5V202.879H1276.6V193.597ZM1242.42 222.485H1234.31V231.766H1242.42V222.485ZM1259.51 222.485H1251.4V231.766H1259.51V222.485ZM1276.6 222.485H1268.5V231.766H1276.6V222.485ZM1374.64 155.132H1366.13V166.346H1374.64V155.132ZM1374.64 171.249H1366.13V182.463H1374.64V171.249ZM1357.14 195.534H1348.63V222.763H1357.14V195.534ZM1374.64 195.534H1366.13V206.748H1374.64V195.534ZM1374.64 211.65H1366.13V222.865H1374.64V211.65ZM1357.14 155.132H1348.63V182.362H1357.14V155.132ZM1162.12 137.977H1148.82V149.088H1162.12V137.977ZM1139.83 168.695H1126.53V179.806H1139.83V168.695ZM1162.12 168.695H1148.82V179.806H1162.12V168.695ZM1139.83 199.412H1126.53V210.524H1139.83V199.412ZM1162.12 199.412H1148.82V210.524H1162.12V199.412ZM1139.83 230.13H1126.53V241.241H1139.83V230.13ZM1162.12 230.13H1148.82V241.241H1162.12V230.13ZM1139.83 137.977H1126.53V149.088H1139.83V137.977ZM1357.14 115.231H1348.63V142.461H1357.14V115.231ZM1374.64 115.231H1366.13V126.445H1374.64V115.231ZM1374.64 131.348H1366.13V142.562H1374.64V131.348ZM1242.42 106.933H1234.31V116.215H1242.42V106.933ZM1797.07 147.252H1791.44V152.891H1797.07V147.252ZM1809.25 131.809H1803.61V137.448H1809.25V131.809ZM1797.07 131.809H1791.44V137.448H1797.07V131.809ZM1809.25 225.072H1803.61V230.711H1809.25V225.072ZM1797.07 225.072H1791.44V230.711H1797.07V225.072ZM1809.25 209.629H1803.61V215.268H1809.25V209.629ZM1797.07 209.629H1791.44V215.268H1797.07V209.629ZM1809.25 194.187H1803.61V199.825H1809.25V194.187ZM1797.07 194.187H1791.44V199.825H1797.07V194.187ZM1809.25 178.744H1803.61V184.383H1809.25V178.744ZM1797.07 178.744H1791.44V184.383H1797.07V178.744ZM1809.25 163.301H1803.61V168.94H1809.25V163.301ZM1797.07 163.301H1791.44V168.94H1797.07V163.301ZM1606.59 109.942H1603.71V142.619H1606.59V109.942ZM1619.85 109.942H1616.97V142.619H1619.85V109.942ZM1495.37 222.175H1486.86V233.389H1495.37V222.175ZM1495.37 206.06H1486.86V217.274H1495.37V206.06ZM1477.88 206.06H1469.36V233.289H1477.88V206.06ZM1495.37 178.507H1486.86V189.721H1495.37V178.507ZM1495.37 162.39H1486.86V173.604H1495.37V162.39ZM1477.88 162.39H1469.36V189.621H1477.88V162.39ZM1495.37 134.837H1486.86V146.052H1495.37V134.837ZM1495.37 118.722H1486.86V129.936H1495.37V118.722ZM1477.88 118.722H1469.36V145.951H1477.88V118.722ZM1586.84 161.669H1578.74V169.775H1586.84V161.669ZM1603.93 161.669H1595.83V169.775H1603.93V161.669ZM1621.03 161.669H1612.92V169.775H1621.03V161.669ZM1586.84 186.931H1578.74V195.037H1586.84V186.931ZM1603.93 186.931H1595.83V195.037H1603.93V186.931ZM1621.03 186.931H1612.92V195.037H1621.03V186.931ZM1586.84 212.193H1578.74V220.301H1586.84V212.193ZM1603.93 212.193H1595.83V220.301H1603.93V212.193ZM1621.03 212.193H1612.92V220.301H1621.03V212.193ZM1581.27 109.943H1578.39V142.62H1581.27V109.943ZM1594.53 109.943H1591.65V142.62H1594.53V109.943ZM1705.12 92.2635H1702.24V124.94H1705.12V92.2635ZM1691.86 92.2635H1688.98V124.94H1691.86V92.2635ZM1705.12 189.445H1702.24V222.123H1705.12V189.445ZM1691.86 189.445H1688.98V222.123H1691.86V189.445ZM1705.12 140.428H1702.24V173.105H1705.12V140.428ZM1733.94 92.2621H1731.05V124.939H1733.94V92.2621ZM1720.68 92.2621H1717.79V124.939H1720.68V92.2621ZM1733.94 189.443H1731.05V222.121H1733.94V189.443ZM1720.68 189.443H1717.79V222.121H1720.68V189.443ZM1733.94 140.427H1731.05V173.104H1733.94V140.427ZM1720.68 140.427H1717.79V173.104H1720.68V140.427ZM1691.86 140.427H1688.98V173.104H1691.86V140.427Z" fill="#003B4E" fill-opacity="0.2"/>
<path fill-rule="evenodd" clip-rule="evenodd" d="M904.54 270.12L912.951 262.034V246.588H910.052V240.792H930.331V245.493H927.57V249.974L953.985 230.175L983.435 251.416L995.019 210.863H1015.32H1148.54L1153.37 229.208V244.655L1164.95 221.483H1178.47V219.811H1176.54V215.688H1192.95V219.628H1191.06V221.483H1281.78L1304.96 274.591L1297.23 277.484V289.071L1361.44 257.208L1388.96 262.034V251.278H1386.22V248.037H1408.27V251.21H1404.41V266.38L1429.51 271.692V279.417H1426.61V334.167H1440V341.212L0 341.209V334.167H13.0133V286.175H9.1509L34.2551 262.037V246.588H31.3591V240.796H51.6343V245.493H48.8769V249.974L75.2888 230.175L104.739 251.416L116.326 210.863H136.628H269.847L274.672 229.208L287.226 209.896H365.435V206.037H362.539V202.678H379.918V206.037H377.019V209.896H398.26L415.64 235L456.193 179L469.71 195.413V188.658H467.781V183.829H481.298V188.658H479.368V210.112L494.814 231.141L506.402 196.379H554.677L564.335 185.758L573.989 196.379H621.302L635.785 244.658L647.369 221.483H660.889V219.811H658.956V215.691H675.372V219.628H673.483V221.483H764.202L787.373 274.588L779.648 277.487V289.071L843.857 257.208L904.54 270.12Z" fill="#0D507D"/>
<path fill-rule="evenodd" clip-rule="evenodd" d="M715.713 294.049H721.556V317.071H715.713V294.049Z" fill="#FEFEFE"/>
<path fill-rule="evenodd" clip-rule="evenodd" d="M715.713 285.145H721.556V291.822H715.713V285.145Z" fill="#FEFEFE"/>
<path fill-rule="evenodd" clip-rule="evenodd" d="M707.431 294.049H713.277V317.071H707.431V294.049Z" fill="#FEFEFE"/>
<path fill-rule="evenodd" clip-rule="evenodd" d="M707.431 285.145H713.277V291.822H707.431V285.145Z" fill="#FEFEFE"/>
<path fill-rule="evenodd" clip-rule="evenodd" d="M699.152 294.049H704.995V317.071H699.152V294.049Z" fill="#FEFEFE"/>
<path fill-rule="evenodd" clip-rule="evenodd" d="M699.152 285.145H704.995V291.822H699.152V285.145Z" fill="#FEFEFE"/>
<path fill-rule="evenodd" clip-rule="evenodd" d="M690.87 294.049H696.712V317.071H690.87V294.049Z" fill="#FEFEFE"/>
<path fill-rule="evenodd" clip-rule="evenodd" d="M690.87 285.145H696.712V291.822H690.87V285.145Z" fill="#FEFEFE"/>
<path fill-rule="evenodd" clip-rule="evenodd" d="M682.587 294.049H688.43V317.071H682.587V294.049Z" fill="#FEFEFE"/>
<path fill-rule="evenodd" clip-rule="evenodd" d="M682.587 285.145H688.43V291.822H682.587V285.145Z" fill="#FEFEFE"/>
<path fill-rule="evenodd" clip-rule="evenodd" d="M640.999 294.049H661.008V317.071H640.999V294.049Z" fill="#FEFEFE"/>
<path fill-rule="evenodd" clip-rule="evenodd" d="M655.165 285.145H661.007V291.822H655.165V285.145Z" fill="#FEFEFE"/>
<path fill-rule="evenodd" clip-rule="evenodd" d="M647.747 285.145H653.59V291.822H647.747V285.145Z" fill="#FEFEFE"/>
<path fill-rule="evenodd" clip-rule="evenodd" d="M640.999 285.145H646.842V291.822H640.999V285.145Z" fill="#FEFEFE"/>
<path fill-rule="evenodd" clip-rule="evenodd" d="M612.705 260.203H623.474V275.267H612.705V260.203Z" fill="#FEFEFE"/>
<path fill-rule="evenodd" clip-rule="evenodd" d="M599.039 260.203H609.809V275.267H599.039V260.203Z" fill="#FEFEFE"/>
<path fill-rule="evenodd" clip-rule="evenodd" d="M586.604 260.203H597.374V275.267H586.604V260.203Z" fill="#FEFEFE"/>
<path fill-rule="evenodd" clip-rule="evenodd" d="M593.136 290.967H597.401V295.356H593.136V290.967Z" fill="#FEFEFE"/>
<path fill-rule="evenodd" clip-rule="evenodd" d="M599.002 290.967H603.263V295.356H599.002V290.967Z" fill="#FEFEFE"/>
<path fill-rule="evenodd" clip-rule="evenodd" d="M604.747 290.967H611.509V295.356H604.747V290.967Z" fill="#FEFEFE"/>
<path fill-rule="evenodd" clip-rule="evenodd" d="M612.519 290.967H616.382V295.356H612.519V290.967Z" fill="#FEFEFE"/>
<path fill-rule="evenodd" clip-rule="evenodd" d="M593.136 284.678H597.401V289.071H593.136V284.678Z" fill="#FEFEFE"/>
<path fill-rule="evenodd" clip-rule="evenodd" d="M599.002 284.678H603.263V289.071H599.002V284.678Z" fill="#FEFEFE"/>
<path fill-rule="evenodd" clip-rule="evenodd" d="M604.747 284.678H611.509V289.071H604.747V284.678Z" fill="#FEFEFE"/>
<path fill-rule="evenodd" clip-rule="evenodd" d="M612.519 284.678H616.382V289.071H612.519V284.678Z" fill="#FEFEFE"/>
<path fill-rule="evenodd" clip-rule="evenodd" d="M516.509 290.967H520.77V295.356H516.509V290.967Z" fill="#FEFEFE"/>
<path fill-rule="evenodd" clip-rule="evenodd" d="M522.372 290.967H526.633V295.356H522.372V290.967Z" fill="#FEFEFE"/>
<path fill-rule="evenodd" clip-rule="evenodd" d="M528.117 290.967H534.878V295.356H528.117V290.967Z" fill="#FEFEFE"/>
<path fill-rule="evenodd" clip-rule="evenodd" d="M535.889 290.967H539.755V295.356H535.889V290.967Z" fill="#FEFEFE"/>
<path fill-rule="evenodd" clip-rule="evenodd" d="M516.509 284.678H520.77V289.071H516.509V284.678Z" fill="#FEFEFE"/>
<path fill-rule="evenodd" clip-rule="evenodd" d="M522.372 284.678H526.633V289.071H522.372V284.678Z" fill="#FEFEFE"/>
<path fill-rule="evenodd" clip-rule="evenodd" d="M528.117 284.678H534.878V289.071H528.117V284.678Z" fill="#FEFEFE"/>
<path fill-rule="evenodd" clip-rule="evenodd" d="M535.889 284.678H539.755V289.071H535.889V284.678Z" fill="#FEFEFE"/>
<path fill-rule="evenodd" clip-rule="evenodd" d="M534.277 260.203H546.837V275.267H534.277V260.203Z" fill="#FEFEFE"/>
<path fill-rule="evenodd" clip-rule="evenodd" d="M518.337 260.203H530.898V275.267H518.337V260.203Z" fill="#FEFEFE"/>
<path fill-rule="evenodd" clip-rule="evenodd" d="M503.837 260.203H516.394V275.267H503.837V260.203Z" fill="#FEFEFE"/>
<path fill-rule="evenodd" clip-rule="evenodd" d="M378.637 260.203H391.201V275.267H378.637V260.203Z" fill="#FEFEFE"/>
<path fill-rule="evenodd" clip-rule="evenodd" d="M364.137 260.203H376.698V275.267H364.137V260.203Z" fill="#FEFEFE"/>
<path fill-rule="evenodd" clip-rule="evenodd" d="M326.101 303.987H338.661V319.048H326.101V303.987Z" fill="#FEFEFE"/>
<path fill-rule="evenodd" clip-rule="evenodd" d="M291.075 303.987H303.636V319.048H291.075V303.987Z" fill="#FEFEFE"/>
<path fill-rule="evenodd" clip-rule="evenodd" d="M326.101 260.203H338.661V275.267H326.101V260.203Z" fill="#FEFEFE"/>
<path fill-rule="evenodd" clip-rule="evenodd" d="M291.075 260.203H303.636V275.267H291.075V260.203Z" fill="#FEFEFE"/>
<path fill-rule="evenodd" clip-rule="evenodd" d="M249.48 314.185H256.516V321.646H249.48V314.185Z" fill="#FEFEFE"/>
<path fill-rule="evenodd" clip-rule="evenodd" d="M240.742 314.185H247.777V321.646H240.742V314.185Z" fill="#FEFEFE"/>
<path fill-rule="evenodd" clip-rule="evenodd" d="M249.48 304.808H256.516V312.269H249.48V304.808Z" fill="#FEFEFE"/>
<path fill-rule="evenodd" clip-rule="evenodd" d="M240.742 304.808H247.777V312.269H240.742V304.808Z" fill="#FEFEFE"/>
<path fill-rule="evenodd" clip-rule="evenodd" d="M194.129 274.588H206.527V269.762H194.129V274.588Z" fill="#FEFEFE"/>
<path fill-rule="evenodd" clip-rule="evenodd" d="M194.129 243.57H206.527V264.933H194.129V243.57Z" fill="#FEFEFE"/>
<path fill-rule="evenodd" clip-rule="evenodd" d="M375.089 317.071H383.78V312.246H375.089V317.071Z" fill="#FEFEFE"/>
<path fill-rule="evenodd" clip-rule="evenodd" d="M447.505 226.312H455.227V217.621H447.505V226.312Z" fill="#FEFEFE"/>
<path fill-rule="evenodd" clip-rule="evenodd" d="M456.193 226.312H463.918V217.621H456.193V226.312Z" fill="#FEFEFE"/>
<path fill-rule="evenodd" clip-rule="evenodd" d="M456.193 238.863H463.918V229.208H456.193V238.863Z" fill="#FEFEFE"/>
<path fill-rule="evenodd" clip-rule="evenodd" d="M447.505 238.863H455.227V229.208H447.505V238.863Z" fill="#FEFEFE"/>
<path fill-rule="evenodd" clip-rule="evenodd" d="M238.947 286.175H247.639V269.762H238.947V286.175Z" fill="#FEFEFE"/>
<path fill-rule="evenodd" clip-rule="evenodd" d="M249.626 286.175H259.28V269.762H249.626V286.175Z" fill="#FEFEFE"/>
<path fill-rule="evenodd" clip-rule="evenodd" d="M248.605 243.692H241.847V255.279C247.956 255.279 248.93 255.279 255.364 255.279V243.692H254.397H248.605Z" fill="#FEFEFE"/>
<path fill-rule="evenodd" clip-rule="evenodd" d="M178.118 274.588H190.52V269.762H178.118V274.588Z" fill="#FEFEFE"/>
<path fill-rule="evenodd" clip-rule="evenodd" d="M178.118 243.57H190.52V264.933H178.118V243.57Z" fill="#FEFEFE"/>
<path fill-rule="evenodd" clip-rule="evenodd" d="M57.4262 263.004H66.1175V256.242H57.4262V263.004Z" fill="#FEFEFE"/>
<path fill-rule="evenodd" clip-rule="evenodd" d="M68.0472 263.004H76.7385V256.242H68.0472V263.004Z" fill="#FEFEFE"/>
<path fill-rule="evenodd" clip-rule="evenodd" d="M137.568 254.313H143.36V243.692H137.568V254.313Z" fill="#FEFEFE"/>
<path fill-rule="evenodd" clip-rule="evenodd" d="M130.809 254.313H136.601V243.692H130.809V254.313Z" fill="#FEFEFE"/>
<path fill-rule="evenodd" clip-rule="evenodd" d="M57.4262 272.658H66.1175V264.934H57.4262V272.658Z" fill="#FEFEFE"/>
<path fill-rule="evenodd" clip-rule="evenodd" d="M68.0472 272.658H76.7385V264.934H68.0472V272.658Z" fill="#FEFEFE"/>
<path fill-rule="evenodd" clip-rule="evenodd" d="M137.568 312.246H145.292V303.554H137.568V312.246Z" fill="#FEFEFE"/>
<path fill-rule="evenodd" clip-rule="evenodd" d="M128.88 312.246H136.601V303.554H128.88V312.246Z" fill="#FEFEFE"/>
<path fill-rule="evenodd" clip-rule="evenodd" d="M137.568 323.83H145.292V314.175H137.568V323.83Z" fill="#FEFEFE"/>
<path fill-rule="evenodd" clip-rule="evenodd" d="M128.88 323.83H136.601V314.175H128.88V323.83Z" fill="#FEFEFE"/>
<path fill-rule="evenodd" clip-rule="evenodd" d="M75.7721 296.796H84.4634V288.104H75.7721V296.796Z" fill="#FEFEFE"/>
<path fill-rule="evenodd" clip-rule="evenodd" d="M75.7721 309.35H84.4634V298.726H75.7721V309.35Z" fill="#FEFEFE"/>
<path fill-rule="evenodd" clip-rule="evenodd" d="M33.2886 307.417H43.9095V296.796H33.2886V307.417Z" fill="#FEFEFE"/>
<path fill-rule="evenodd" clip-rule="evenodd" d="M127.913 286.175H136.601V269.762H127.913V286.175Z" fill="#FEFEFE"/>
<path fill-rule="evenodd" clip-rule="evenodd" d="M137.568 286.175H146.259V269.762H137.568V286.175Z" fill="#FEFEFE"/>
<path fill-rule="evenodd" clip-rule="evenodd" d="M86.3929 296.796H102.809V288.104H86.3929V296.796Z" fill="#FEFEFE"/>
<path fill-rule="evenodd" clip-rule="evenodd" d="M86.3929 309.35H102.809V298.726H86.3929V309.35Z" fill="#FEFEFE"/>
<path fill-rule="evenodd" clip-rule="evenodd" d="M438.28 266.187H445.316V273.645H438.28V266.187Z" fill="#FEFEFE"/>
<path fill-rule="evenodd" clip-rule="evenodd" d="M429.542 266.187H436.577V273.645H429.542V266.187Z" fill="#FEFEFE"/>
<path fill-rule="evenodd" clip-rule="evenodd" d="M438.28 256.806H445.316V264.268H438.28V256.806Z" fill="#FEFEFE"/>
<path fill-rule="evenodd" clip-rule="evenodd" d="M429.542 256.806H436.577V264.268H429.542V256.806Z" fill="#FEFEFE"/>
<path fill-rule="evenodd" clip-rule="evenodd" d="M473.211 266.187H480.247V273.645H473.211V266.187Z" fill="#FEFEFE"/>
<path fill-rule="evenodd" clip-rule="evenodd" d="M464.472 266.187H471.508V273.645H464.472V266.187Z" fill="#FEFEFE"/>
<path fill-rule="evenodd" clip-rule="evenodd" d="M473.211 256.806H480.247V264.268H473.211V256.806Z" fill="#FEFEFE"/>
<path fill-rule="evenodd" clip-rule="evenodd" d="M464.472 256.806H471.508V264.268H464.472V256.806Z" fill="#FEFEFE"/>
<path fill-rule="evenodd" clip-rule="evenodd" d="M440.622 307.133H447.654V314.594H440.622V307.133Z" fill="#FEFEFE"/>
<path fill-rule="evenodd" clip-rule="evenodd" d="M431.883 307.133H438.916V314.594H431.883V307.133Z" fill="#FEFEFE"/>
<path fill-rule="evenodd" clip-rule="evenodd" d="M440.622 297.756H447.654V305.217H440.622V297.756Z" fill="#FEFEFE"/>
<path fill-rule="evenodd" clip-rule="evenodd" d="M431.883 297.756H438.916V305.217H431.883V297.756Z" fill="#FEFEFE"/>
<path fill-rule="evenodd" clip-rule="evenodd" d="M475.553 307.133H482.589V314.594H475.553V307.133Z" fill="#FEFEFE"/>
<path fill-rule="evenodd" clip-rule="evenodd" d="M466.811 307.133H473.846V314.594H466.811V307.133Z" fill="#FEFEFE"/>
<path fill-rule="evenodd" clip-rule="evenodd" d="M475.553 297.756H482.589V305.217H475.553V297.756Z" fill="#FEFEFE"/>
<path fill-rule="evenodd" clip-rule="evenodd" d="M466.811 297.756H473.846V305.217H466.811V297.756Z" fill="#FEFEFE"/>
<path fill-rule="evenodd" clip-rule="evenodd" d="M522.264 316.321H529.299V323.782H522.264V316.321Z" fill="#FEFEFE"/>
<path fill-rule="evenodd" clip-rule="evenodd" d="M513.525 316.321H520.561V323.782H513.525V316.321Z" fill="#FEFEFE"/>
<path fill-rule="evenodd" clip-rule="evenodd" d="M522.264 306.944H529.299V314.405H522.264V306.944Z" fill="#FEFEFE"/>
<path fill-rule="evenodd" clip-rule="evenodd" d="M513.525 306.944H520.561V314.405H513.525V306.944Z" fill="#FEFEFE"/>
<path fill-rule="evenodd" clip-rule="evenodd" d="M564.538 316.321H571.57V323.782H564.538V316.321Z" fill="#FEFEFE"/>
<path fill-rule="evenodd" clip-rule="evenodd" d="M555.796 316.321H562.831V323.782H555.796V316.321Z" fill="#FEFEFE"/>
<path fill-rule="evenodd" clip-rule="evenodd" d="M564.538 306.944H571.57V314.405H564.538V306.944Z" fill="#FEFEFE"/>
<path fill-rule="evenodd" clip-rule="evenodd" d="M555.796 306.944H562.831V314.405H555.796V306.944Z" fill="#FEFEFE"/>
<path fill-rule="evenodd" clip-rule="evenodd" d="M606.808 316.321H613.84V323.782H606.808V316.321Z" fill="#FEFEFE"/>
<path fill-rule="evenodd" clip-rule="evenodd" d="M598.066 316.321H605.102V323.782H598.066V316.321Z" fill="#FEFEFE"/>
<path fill-rule="evenodd" clip-rule="evenodd" d="M606.808 306.944H613.84V314.405H606.808V306.944Z" fill="#FEFEFE"/>
<path fill-rule="evenodd" clip-rule="evenodd" d="M598.066 306.944H605.102V314.405H598.066V306.944Z" fill="#FEFEFE"/>
<path fill-rule="evenodd" clip-rule="evenodd" d="M761.82 301.425H771.903V312.124H761.82V301.425Z" fill="#FEFEFE"/>
<path fill-rule="evenodd" clip-rule="evenodd" d="M749.286 301.425H759.373V312.124H749.286V301.425Z" fill="#FEFEFE"/>
<path fill-rule="evenodd" clip-rule="evenodd" d="M761.82 287.98H771.903V298.675H761.82V287.98Z" fill="#FEFEFE"/>
<path fill-rule="evenodd" clip-rule="evenodd" d="M749.286 287.98H759.373V298.675H749.286V287.98Z" fill="#FEFEFE"/>
<path fill-rule="evenodd" clip-rule="evenodd" d="M832.8 306.71H845.644V316.96H832.8V306.71Z" fill="#FEFEFE"/>
<path fill-rule="evenodd" clip-rule="evenodd" d="M816.84 306.71H829.684V316.96H816.84V306.71Z" fill="#FEFEFE"/>
<path fill-rule="evenodd" clip-rule="evenodd" d="M832.8 293.822H845.644V304.075H832.8V293.822Z" fill="#FEFEFE"/>
<path fill-rule="evenodd" clip-rule="evenodd" d="M816.84 293.822H829.684V304.075H816.84V293.822Z" fill="#FEFEFE"/>
<path fill-rule="evenodd" clip-rule="evenodd" d="M883.211 293.822H890.307V302.858H883.211V293.822Z" fill="#FEFEFE"/>
<path fill-rule="evenodd" clip-rule="evenodd" d="M1384.03 293.822H1391.12V302.858H1384.03V293.822Z" fill="#FEFEFE"/>
<path fill-rule="evenodd" clip-rule="evenodd" d="M1400.79 293.822H1407.89V302.858H1400.79V293.822Z" fill="#FEFEFE"/>
<path fill-rule="evenodd" clip-rule="evenodd" d="M1334.42 293.822H1347.27V304.075H1334.42V293.822Z" fill="#FEFEFE"/>
<path fill-rule="evenodd" clip-rule="evenodd" d="M1350.38 293.822H1363.22V304.075H1350.38V293.822Z" fill="#FEFEFE"/>
<path fill-rule="evenodd" clip-rule="evenodd" d="M1334.42 306.71H1347.27V316.963H1334.42V306.71Z" fill="#FEFEFE"/>
<path fill-rule="evenodd" clip-rule="evenodd" d="M1350.38 306.71H1363.22V316.963H1350.38V306.71Z" fill="#FEFEFE"/>
<path fill-rule="evenodd" clip-rule="evenodd" d="M1266.87 287.98H1276.95V298.675H1266.87V287.98Z" fill="#FEFEFE"/>
<path fill-rule="evenodd" clip-rule="evenodd" d="M1279.4 287.98H1289.48V298.675H1279.4V287.98Z" fill="#FEFEFE"/>
<path fill-rule="evenodd" clip-rule="evenodd" d="M1266.87 301.425H1276.95V312.124H1266.87V301.425Z" fill="#FEFEFE"/>
<path fill-rule="evenodd" clip-rule="evenodd" d="M1279.4 301.425H1289.48V312.124H1279.4V301.425Z" fill="#FEFEFE"/>
<path fill-rule="evenodd" clip-rule="evenodd" d="M965.089 309.346H981.502V298.726H965.089V309.346Z" fill="#FEFEFE"/>
<path fill-rule="evenodd" clip-rule="evenodd" d="M965.089 296.796H981.502V288.104H965.089V296.796Z" fill="#FEFEFE"/>
<path fill-rule="evenodd" clip-rule="evenodd" d="M1016.26 286.175H1024.95V269.762H1016.26V286.175Z" fill="#FEFEFE"/>
<path fill-rule="evenodd" clip-rule="evenodd" d="M1006.61 286.175H1015.3V269.762H1006.61V286.175Z" fill="#FEFEFE"/>
<path fill-rule="evenodd" clip-rule="evenodd" d="M911.985 307.417H922.606V296.796H911.985V307.417Z" fill="#FEFEFE"/>
<path fill-rule="evenodd" clip-rule="evenodd" d="M954.465 309.346H963.156V298.726H954.465V309.346Z" fill="#FEFEFE"/>
<path fill-rule="evenodd" clip-rule="evenodd" d="M954.465 296.796H963.156V288.104H954.465V296.796Z" fill="#FEFEFE"/>
<path fill-rule="evenodd" clip-rule="evenodd" d="M1007.57 323.83H1015.3V314.175H1007.57V323.83Z" fill="#FEFEFE"/>
<path fill-rule="evenodd" clip-rule="evenodd" d="M1016.26 323.83H1023.99V314.175H1016.26V323.83Z" fill="#FEFEFE"/>
<path fill-rule="evenodd" clip-rule="evenodd" d="M1007.57 312.246H1015.3V303.554H1007.57V312.246Z" fill="#FEFEFE"/>
<path fill-rule="evenodd" clip-rule="evenodd" d="M1016.26 312.246H1023.99V303.554H1016.26V312.246Z" fill="#FEFEFE"/>
<path fill-rule="evenodd" clip-rule="evenodd" d="M946.743 272.655H955.435V264.934H946.743V272.655Z" fill="#FEFEFE"/>
<path fill-rule="evenodd" clip-rule="evenodd" d="M936.122 272.655H944.814V264.934H936.122V272.655Z" fill="#FEFEFE"/>
<path fill-rule="evenodd" clip-rule="evenodd" d="M1009.5 254.313H1015.3V243.692H1009.5V254.313Z" fill="#FEFEFE"/>
<path fill-rule="evenodd" clip-rule="evenodd" d="M1016.26 254.313H1022.06V243.692H1016.26V254.313Z" fill="#FEFEFE"/>
<path fill-rule="evenodd" clip-rule="evenodd" d="M946.743 263.004H955.435V256.242H946.743V263.004Z" fill="#FEFEFE"/>
<path fill-rule="evenodd" clip-rule="evenodd" d="M936.122 263.004H944.814V256.242H936.122V263.004Z" fill="#FEFEFE"/>
<path fill-rule="evenodd" clip-rule="evenodd" d="M1056.81 243.57H1069.22V264.933H1056.81V243.57Z" fill="#FEFEFE"/>
<path fill-rule="evenodd" clip-rule="evenodd" d="M1056.81 274.591H1069.22V269.762H1056.81V274.591Z" fill="#FEFEFE"/>
<path fill-rule="evenodd" clip-rule="evenodd" d="M1127.3 243.692H1120.54V255.279C1126.65 255.279 1127.62 255.279 1134.06 255.279V243.692H1133.09H1127.3Z" fill="#FEFEFE"/>
<path fill-rule="evenodd" clip-rule="evenodd" d="M1128.32 286.175H1137.98V269.762H1128.32V286.175Z" fill="#FEFEFE"/>
<path fill-rule="evenodd" clip-rule="evenodd" d="M1117.64 286.175H1126.33V269.762H1117.64V286.175Z" fill="#FEFEFE"/>
<path fill-rule="evenodd" clip-rule="evenodd" d="M1072.82 243.57H1085.22V264.933H1072.82V243.57Z" fill="#FEFEFE"/>
<path fill-rule="evenodd" clip-rule="evenodd" d="M1072.82 274.591H1085.22V269.762H1072.82V274.591Z" fill="#FEFEFE"/>
<path fill-rule="evenodd" clip-rule="evenodd" d="M1119.44 304.805H1126.47V312.266H1119.44V304.805Z" fill="#FEFEFE"/>
<path fill-rule="evenodd" clip-rule="evenodd" d="M1128.18 304.805H1135.21V312.266H1128.18V304.805Z" fill="#FEFEFE"/>
<path fill-rule="evenodd" clip-rule="evenodd" d="M1119.44 314.185H1126.47V321.646H1119.44V314.185Z" fill="#FEFEFE"/>
<path fill-rule="evenodd" clip-rule="evenodd" d="M1128.18 314.185H1135.21V321.646H1128.18V314.185Z" fill="#FEFEFE"/>
<path fill-rule="evenodd" clip-rule="evenodd" d="M1158.58 285.148H1164.43V291.822H1158.58V285.148Z" fill="#FEFEFE"/>
<path fill-rule="evenodd" clip-rule="evenodd" d="M1165.33 285.148H1171.17V291.822H1165.33V285.148Z" fill="#FEFEFE"/>
<path fill-rule="evenodd" clip-rule="evenodd" d="M1172.74 285.148H1178.59V291.822H1172.74V285.148Z" fill="#FEFEFE"/>
<path fill-rule="evenodd" clip-rule="evenodd" d="M1158.58 294.049H1178.59V317.071H1158.58V294.049Z" fill="#FEFEFE"/>
<path fill-rule="evenodd" clip-rule="evenodd" d="M1200.17 285.148H1206.01V291.822H1200.17V285.148Z" fill="#FEFEFE"/>
<path fill-rule="evenodd" clip-rule="evenodd" d="M1200.17 294.049H1206.01V317.071H1200.17V294.049Z" fill="#FEFEFE"/>
<path fill-rule="evenodd" clip-rule="evenodd" d="M1208.45 285.148H1214.3V291.822H1208.45V285.148Z" fill="#FEFEFE"/>
<path fill-rule="evenodd" clip-rule="evenodd" d="M1208.45 294.049H1214.3V317.071H1208.45V294.049Z" fill="#FEFEFE"/>
<path fill-rule="evenodd" clip-rule="evenodd" d="M1216.73 285.148H1222.58V291.822H1216.73V285.148Z" fill="#FEFEFE"/>
<path fill-rule="evenodd" clip-rule="evenodd" d="M1216.73 294.049H1222.58V317.071H1216.73V294.049Z" fill="#FEFEFE"/>
<path fill-rule="evenodd" clip-rule="evenodd" d="M1225.01 285.148H1230.86V291.822H1225.01V285.148Z" fill="#FEFEFE"/>
<path fill-rule="evenodd" clip-rule="evenodd" d="M1225.01 294.049H1230.86V317.071H1225.01V294.049Z" fill="#FEFEFE"/>
<path fill-rule="evenodd" clip-rule="evenodd" d="M1233.3 285.148H1239.14V291.822H1233.3V285.148Z" fill="#FEFEFE"/>
<path fill-rule="evenodd" clip-rule="evenodd" d="M1233.3 294.049H1239.14V317.071H1233.3V294.049Z" fill="#FEFEFE"/>
<path fill-rule="evenodd" clip-rule="evenodd" d="M866.447 293.822H873.543V302.858H866.447V293.822Z" fill="#FEFEFE"/>
</svg>
