<svg width="519" height="525" viewBox="0 0 519 525" fill="none" xmlns="http://www.w3.org/2000/svg">
<g clip-path="url(#clip0_192_1586)">
<path d="M329.915 13.3927L457.385 179.022L114.573 93.79L305.516 7.27214C309.676 5.38387 314.353 4.96103 318.784 6.07256C323.215 7.1841 327.139 9.76443 329.915 13.3927Z" fill="#EBEBEB"/>
<path d="M459.193 180.201L330.478 12.9778C327.608 9.21752 323.543 6.54676 318.952 5.40509C314.362 4.26342 309.52 4.71888 305.223 6.6965L112.391 94.0581L459.193 180.201ZM313.9 6.09382C316.894 6.09585 319.847 6.79089 322.528 8.12456C325.209 9.45823 327.545 11.3943 329.353 13.7813L455.591 177.857L116.716 93.6028L305.798 7.88847C308.345 6.74043 311.107 6.15132 313.9 6.16079V6.09382Z" fill="#E0E0E0"/>
<path d="M457.395 179.028L113.376 93.4986L67.0273 279.971C66.1097 283.663 66.696 287.568 68.6573 290.827C70.6187 294.087 73.7943 296.433 77.4857 297.351L393.668 375.96C397.359 376.878 401.264 376.292 404.523 374.33C407.782 372.368 410.129 369.192 411.046 365.5L457.395 179.028Z" fill="#F0F0F0"/>
<path d="M134.553 103.714L253.734 225.495L433.871 184.942L454.48 89.3837C455.621 84.4546 454.779 79.2746 452.136 74.9604C449.493 70.6463 445.261 67.5436 440.352 66.3212L179.762 1.53994C177.305 0.926995 174.751 0.804648 172.247 1.17991C169.743 1.55517 167.338 2.42067 165.169 3.72686C162.999 5.03306 161.109 6.75431 159.606 8.79207C158.102 10.8298 157.016 13.1441 156.408 15.6024L134.553 103.714Z" fill="white"/>
<path d="M270.098 215.92L411.629 363.83C411.129 365.842 410.238 367.735 409.006 369.402C407.775 371.069 406.227 372.477 404.451 373.545C402.675 374.614 400.706 375.321 398.657 375.629C396.607 375.936 394.517 375.836 392.506 375.335L78.7532 297.321C74.6943 296.312 71.2024 293.731 69.0453 290.148C66.8882 286.564 66.2426 282.27 67.2503 278.21L67.5449 277.031L252.61 211.741C255.617 210.678 258.868 210.507 261.971 211.248C265.074 211.989 267.896 213.612 270.098 215.92Z" fill="#E0E0E0"/>
<path d="M315.314 80.4288L417.26 105.793L414.67 116.204L312.724 90.8392L315.314 80.4288Z" fill="#E0E0E0"/>
<path d="M184.506 75.9101L410.697 132.188L407.772 143.95L181.58 87.6721L184.506 75.9101Z" fill="#E0E0E0"/>
<path d="M177.352 104.646L403.543 160.923L400.617 172.685L174.426 116.408L177.352 104.646Z" fill="#E0E0E0"/>
<path d="M172.598 142.728L179.682 149.812L369.567 199.46L394.381 193.661L395.318 190.969L169.853 134.879L168.875 138.777L172.598 142.728Z" fill="#E0E0E0"/>
<path d="M221.168 192.214L306.71 213.482L332.863 207.509L205.019 175.701L221.168 192.214Z" fill="#E0E0E0"/>
<path d="M275.268 221.304C275.268 221.304 275.361 221.451 275.589 221.705L276.607 222.817L280.544 227.036L295.127 242.478C307.473 255.482 324.587 273.456 343.535 293.156C362.484 312.857 379.892 330.536 392.587 343.205C398.934 349.54 404.103 354.656 407.692 358.152L411.83 362.17L412.928 363.201C413.043 363.329 413.173 363.441 413.316 363.536C413.217 363.396 413.105 363.266 412.982 363.147L411.937 362.063L407.92 357.951L392.962 342.857C380.361 330.094 363.046 312.375 344.058 292.661C325.069 272.947 307.902 255.161 295.515 242.13L280.785 226.848L276.767 222.723L275.696 221.665C275.402 221.411 275.268 221.304 275.268 221.304Z" fill="#FAFAFA"/>
<path d="M67.5446 277.005C67.6116 277.192 107.075 263.491 155.685 246.402C204.294 229.313 243.651 215.304 243.584 215.116C243.517 214.929 204.053 228.616 155.444 245.705C106.834 262.795 67.4777 276.804 67.5446 277.005Z" fill="#FAFAFA"/>
<path d="M128.889 97.8481C128.963 97.9675 129.048 98.0796 129.144 98.183L129.893 99.1071L133.067 102.629L144.891 115.473C154.908 126.281 168.862 141.094 184.502 157.259C200.143 173.424 214.579 187.848 225.051 198.214L237.518 210.428L240.946 213.71L241.843 214.554C242.057 214.741 242.164 214.835 242.178 214.821C242.093 214.707 241.999 214.599 241.897 214.5L241.053 213.603L237.718 210.228L225.425 197.853C215.034 187.393 200.746 172.902 185.105 156.75C169.464 140.598 155.457 125.893 145.333 115.179L133.348 102.495L130.068 99.0669L129.197 98.183C129.109 98.0591 129.005 97.9466 128.889 97.8481Z" fill="#FAFAFA"/>
<path d="M275.266 221.304C275.425 221.295 275.582 221.268 275.735 221.223L277.074 220.902L282.43 219.562C287.01 218.411 293.665 216.79 301.901 214.862C318.358 210.964 341.19 205.942 366.419 200.478C391.648 195.013 414.466 189.911 430.897 185.879C439.119 183.871 445.761 182.183 450.328 180.951L455.59 179.518L456.929 179.129C457.088 179.096 457.241 179.042 457.385 178.969L456.916 179.062L455.577 179.371L450.221 180.71C445.627 181.862 438.972 183.469 430.737 185.411C414.279 189.308 391.46 194.33 366.218 199.795C340.976 205.259 318.171 210.362 301.74 214.393C293.518 216.402 286.876 218.076 282.31 219.321L277.06 220.754L275.721 221.143L275.266 221.304Z" fill="#FAFAFA"/>
<path d="M134.553 103.714C134.553 103.714 134.687 103.272 134.914 102.375L135.892 98.5848C136.749 95.2232 137.994 90.308 139.601 83.9732L153.086 30.241C153.8 27.4017 154.528 24.4955 155.269 21.5223C155.631 20.0491 156.005 18.5357 156.394 17.0223C156.581 16.2589 156.769 15.4955 157.01 14.7589C157.22 14.0068 157.488 13.2724 157.813 12.5624C159.141 9.55784 161.228 6.95117 163.87 4.9995C166.512 3.04783 169.617 1.81858 172.878 1.43298C174.571 1.19877 176.288 1.19877 177.98 1.43298C179.668 1.72763 181.382 2.19638 183.109 2.61156L193.621 5.29013L215.596 10.7142L313.23 35.0892L410.985 59.3571L432.933 64.7946L438.29 66.1339C440.028 66.4951 441.731 67.0106 443.378 67.6741C446.555 69.0513 449.296 71.2693 451.306 74.0892C452.278 75.4596 453.07 76.9496 453.663 78.5223C454.215 80.0759 454.579 81.6901 454.747 83.3303C455.136 86.6116 454.225 89.7723 453.582 92.8928C452.243 99.1428 450.962 105.129 449.739 110.853C444.851 133.741 440.901 152.25 438.169 165.067C436.83 171.469 435.772 176.424 435.049 179.799C434.714 181.473 434.446 182.759 434.259 183.643C434.071 184.527 434.018 184.982 434.018 184.982C434.018 184.982 434.138 184.54 434.339 183.643C434.54 182.745 434.821 181.487 435.196 179.826C435.946 176.437 437.031 171.482 438.437 165.094C441.236 152.29 445.266 133.781 450.248 110.933C451.48 105.214 452.792 99.2276 454.145 92.9732C454.787 89.8928 455.725 86.625 455.323 83.2366C455.169 81.5405 454.8 79.8708 454.225 78.2678C453.613 76.645 452.799 75.106 451.801 73.6874C450.787 72.2436 449.574 70.9497 448.199 69.8437C446.822 68.6956 445.283 67.7569 443.633 67.058C441.957 66.374 440.222 65.845 438.45 65.4776L433.094 64.1383L411.106 58.7008L313.351 34.3794L215.596 10.1116L193.648 4.67406L183.136 2.07584C181.408 1.64727 179.721 1.19191 177.953 0.883876C175.372 0.498275 172.74 0.631312 170.211 1.2752C167.681 1.91909 165.306 3.06091 163.223 4.63387C160.573 6.6402 158.48 9.2912 157.144 12.3348C156.808 13.0662 156.53 13.823 156.313 14.5982C156.072 15.3616 155.885 16.1249 155.697 16.8883C155.322 18.4017 154.961 19.9151 154.586 21.4017C153.849 24.375 153.14 27.2812 152.43 30.1205L139.173 83.9464C137.633 90.2946 136.428 95.2232 135.611 98.5848C135.209 100.259 134.901 101.531 134.7 102.402C134.499 103.272 134.553 103.714 134.553 103.714Z" fill="#E0E0E0"/>
<path d="M0 523.661C0 523.862 116.184 524.022 259.5 524.022C402.816 524.022 519 523.875 519 523.661C519 523.446 402.829 523.286 259.5 523.286C116.171 523.286 0 523.473 0 523.661Z" fill="#263238"/>
<path d="M284.28 33.0269L297.524 43.1118L296.881 62.3707L309 52.7412L315.696 58.4734L341.139 27.0537L284.28 33.0269Z" fill="#2298BC"/>
<path d="M302.505 47.21C302.505 47.7992 296.881 62.3707 296.881 62.3707L309 52.7412L302.505 47.21Z" fill="#2298BC"/>
<g opacity="0.3">
<path d="M302.505 47.21C302.505 47.7992 296.881 62.3707 296.881 62.3707L309 52.7412L302.505 47.21Z" fill="black"/>
</g>
<path d="M341.139 27.0537L302.505 47.21L296.881 62.3707L297.524 43.1118L341.139 27.0537Z" fill="#2298BC"/>
<path opacity="0.1" d="M341.139 27.0537L302.505 47.21L296.881 62.3707L297.524 43.1118L341.139 27.0537Z" fill="black"/>
<path d="M234.009 286.902C236.39 286.823 238.729 286.253 240.879 285.228C238.498 285.307 236.159 285.877 234.009 286.902Z" fill="#263238"/>
<path d="M223.055 289.58C223.055 289.781 224.06 289.714 225.184 289.446C226.309 289.179 227.193 288.777 227.153 288.576C227.113 288.375 226.149 288.442 225.01 288.723C223.872 289.005 223.002 289.38 223.055 289.58Z" fill="#263238"/>
<path d="M268.263 59.8529C269.451 59.8703 270.633 59.6845 271.758 59.3038C272.938 59.159 274.082 58.8004 275.133 58.2458C273.939 58.0889 272.725 58.2081 271.584 58.594C270.392 58.7401 269.253 59.172 268.263 59.8529Z" fill="#263238"/>
<path d="M255.3 65.4107C257.547 64.6735 259.672 63.6084 261.607 62.25C260.412 62.3637 259.26 62.7583 258.246 63.4018C256.492 64.2857 255.193 65.2366 255.3 65.4107Z" fill="#263238"/>
<path d="M244.066 73.9286C244.213 74.076 245.405 73.0715 246.905 71.8126C248.404 70.5536 249.583 69.4822 249.409 69.3081C248.267 69.7116 247.235 70.3766 246.396 71.2501C244.936 72.5358 243.918 73.7947 244.066 73.9286Z" fill="#263238"/>
<path d="M235.495 85.112C235.683 85.2057 236.567 83.9066 237.638 82.2994C238.388 81.3784 238.977 80.3369 239.379 79.2191C239.232 79.0986 238.107 80.2503 237.022 81.8977C236.266 82.8333 235.743 83.9349 235.495 85.112Z" fill="#263238"/>
<path d="M230.634 98.3304C231.209 97.2918 231.607 96.1648 231.812 94.9956C232.26 93.8917 232.509 92.7174 232.549 91.5269C231.825 92.4909 231.335 93.6094 231.116 94.7947C230.666 95.9154 230.5 97.1301 230.634 98.3304Z" fill="#263238"/>
<path d="M229.911 112.393C230.15 111.23 230.2 110.036 230.058 108.857C230.159 107.673 230.05 106.481 229.737 105.335C229.328 106.466 229.186 107.676 229.322 108.871C229.237 110.075 229.439 111.282 229.911 112.393Z" fill="#263238"/>
<path d="M233.566 125.973C233.422 124.798 233.088 123.653 232.575 122.585C232.303 121.437 231.851 120.338 231.236 119.331C231.171 120.537 231.415 121.741 231.946 122.826C232.219 123.993 232.775 125.074 233.566 125.973Z" fill="#263238"/>
<path d="M241.75 137.411C241.884 137.25 240.84 136.072 239.567 134.625C238.295 133.179 237.277 131.947 237.103 132.094C237.483 133.241 238.141 134.276 239.018 135.107C240.317 136.607 241.616 137.558 241.75 137.411Z" fill="#263238"/>
<path d="M253.561 145.018C252.656 144.253 251.634 143.638 250.534 143.196C249.545 142.541 248.455 142.052 247.307 141.75C248.085 142.677 249.078 143.399 250.199 143.853C251.207 144.512 252.361 144.913 253.561 145.018Z" fill="#263238"/>
<path d="M267.301 147.978C266.18 147.566 264.999 147.344 263.806 147.322C262.647 147.056 261.453 146.979 260.27 147.094C261.322 147.69 262.504 148.017 263.712 148.045C264.894 148.328 266.13 148.305 267.301 147.978Z" fill="#263238"/>
<path d="M281.092 145.366C278.802 145.843 276.561 146.529 274.396 147.415C275.597 147.565 276.815 147.399 277.931 146.933C279.104 146.697 280.194 146.157 281.092 145.366Z" fill="#263238"/>
<path d="M290.867 135.67C290.666 135.603 290.05 137.009 288.952 138.589C287.854 140.17 286.796 141.268 286.944 141.469C287.091 141.67 288.403 140.665 289.555 139.018C290.365 138.086 290.829 136.904 290.867 135.67Z" fill="#263238"/>
<path d="M284.922 124.701C284.922 124.916 286.382 125.384 287.908 126.469C289.435 127.554 290.252 128.907 290.439 128.799C290.627 128.692 290.038 127.085 288.337 125.88C287.39 125.067 286.169 124.645 284.922 124.701Z" fill="#263238"/>
<path d="M272.817 129.724C273.005 129.831 273.862 128.518 275.254 127.232C276.647 125.947 278.067 125.304 277.933 125.103C276.689 125.201 275.529 125.771 274.692 126.697C273.73 127.453 273.066 128.525 272.817 129.724Z" fill="#263238"/>
<path d="M272.361 143.397C272.262 142.23 272.042 141.077 271.705 139.955C271.605 138.784 271.385 137.626 271.049 136.5C270.69 137.669 270.69 138.92 271.049 140.089C271.141 141.3 271.599 142.453 272.361 143.397Z" fill="#263238"/>
<path d="M281.535 153.911C281.655 153.737 280.437 152.732 278.977 151.487C277.517 150.241 276.299 149.17 276.205 149.304C276.111 149.438 276.982 150.75 278.495 151.982C280.008 153.215 281.428 154.085 281.535 153.911Z" fill="#263238"/>
<path d="M294.055 160.42C293.169 159.618 292.13 159.003 291.002 158.612C289.972 158.004 288.827 157.617 287.64 157.473C289.55 158.891 291.735 159.895 294.055 160.42Z" fill="#263238"/>
<path d="M306.656 166.821C306.763 166.647 305.491 165.696 303.804 164.679C302.819 163.992 301.694 163.534 300.509 163.339C300.402 163.54 301.768 164.357 303.442 165.321C304.398 166.038 305.492 166.549 306.656 166.821Z" fill="#263238"/>
<path d="M317.367 176.036C317.515 175.902 316.591 174.589 315.185 173.21C314.409 172.291 313.433 171.563 312.332 171.081C312.198 171.241 313.283 172.42 314.662 173.759C316.042 175.098 317.153 176.17 317.367 176.036Z" fill="#263238"/>
<path d="M325.404 187.58C325.18 186.398 324.685 185.284 323.958 184.326C322.927 182.652 321.869 181.446 321.708 181.567C322.056 182.705 322.605 183.771 323.329 184.714C324.346 186.362 325.217 187.674 325.404 187.58Z" fill="#263238"/>
<path d="M330.546 200.705C330.615 199.506 330.394 198.307 329.904 197.21C329.652 196.032 329.124 194.93 328.364 193.996C328.756 196.324 329.491 198.58 330.546 200.692V200.705Z" fill="#263238"/>
<path d="M332.394 214.688C332.88 212.34 332.713 209.903 331.912 207.643C331.708 208.813 331.708 210.009 331.912 211.179C331.865 212.368 332.029 213.555 332.394 214.688Z" fill="#263238"/>
<path d="M330.545 228.657C331.146 227.621 331.524 226.472 331.656 225.282C332.05 224.142 332.151 222.921 331.951 221.732C331.432 222.805 331.088 223.953 330.933 225.134C330.562 226.269 330.43 227.468 330.545 228.657Z" fill="#263238"/>
<path d="M325.095 241.648C325.269 241.755 326.22 240.469 327.09 238.701C327.736 237.684 328.127 236.526 328.229 235.326C327.457 236.232 326.85 237.265 326.434 238.38C325.799 239.382 325.346 240.488 325.095 241.648Z" fill="#263238"/>
<path d="M316.632 252.938C316.766 253.072 317.971 252.054 319.31 250.554C320.172 249.713 320.832 248.687 321.238 247.554C321.064 247.42 320.006 248.598 318.748 250.072C317.489 251.545 316.484 252.79 316.632 252.938Z" fill="#263238"/>
<path d="M305.759 261.911C306.923 261.598 307.996 261.015 308.892 260.21C310.473 259.058 311.571 257.906 311.463 257.746C310.358 258.191 309.338 258.825 308.451 259.621C306.897 260.759 305.652 261.737 305.759 261.911Z" fill="#263238"/>
<path d="M293.038 267.991C294.243 267.984 295.428 267.685 296.493 267.121C297.654 266.796 298.717 266.189 299.586 265.353C298.413 265.526 297.277 265.893 296.225 266.438C295.087 266.783 294.011 267.308 293.038 267.991Z" fill="#263238"/>
<path d="M285.953 269.799C285.953 269.987 286.074 270.148 286.14 270.134C286.207 270.121 286.234 269.947 286.14 269.746C286.047 269.545 286.02 269.398 285.953 269.411C285.886 269.424 285.913 269.599 285.953 269.799Z" fill="#263238"/>
<path d="M296.192 234.726L310.836 229.917L313.827 239.027L299.184 243.837L296.192 234.726Z" fill="#2298BC"/>
<g opacity="0.3">
<path d="M296.192 234.726L310.836 229.917L313.827 239.027L299.184 243.837L296.192 234.726Z" fill="black"/>
</g>
<path d="M296.223 234.75C298.961 236.123 301.799 237.287 304.713 238.232L304.967 238.326L305.128 238.112L305.382 237.79C307.414 235.32 309.246 232.691 310.859 229.929C308.652 232.244 306.624 234.725 304.793 237.348L304.552 237.67L304.967 237.549C302.133 236.383 299.208 235.447 296.223 234.75Z" fill="#2298BC"/>
<g opacity="0.1">
<path d="M296.223 234.75C298.961 236.123 301.799 237.287 304.713 238.232L304.967 238.326L305.128 238.112L305.382 237.79C307.414 235.32 309.246 232.691 310.859 229.929C308.652 232.244 306.624 234.725 304.793 237.348L304.552 237.67L304.967 237.549C302.133 236.383 299.208 235.447 296.223 234.75Z" fill="black"/>
</g>
<path d="M306.657 235.514C307.665 236.421 308.832 237.133 310.099 237.616C311.266 238.308 312.543 238.793 313.875 239.049C312.858 238.148 311.688 237.436 310.42 236.947C309.256 236.258 307.984 235.774 306.657 235.514Z" fill="#2298BC"/>
<g opacity="0.1">
<path d="M306.657 235.514C307.665 236.421 308.832 237.133 310.099 237.616C311.266 238.308 312.543 238.793 313.875 239.049C312.858 238.148 311.688 237.436 310.42 236.947C309.256 236.258 307.984 235.774 306.657 235.514Z" fill="black"/>
</g>
<path d="M298.957 243.937C299.776 242.927 300.411 241.78 300.831 240.549C301.715 238.554 302.304 236.839 302.036 236.866C301.215 237.877 300.576 239.024 300.148 240.254C299.525 241.397 299.12 242.646 298.957 243.937Z" fill="#2298BC"/>
<g opacity="0.1">
<path d="M298.957 243.937C299.776 242.927 300.411 241.78 300.831 240.549C301.715 238.554 302.304 236.839 302.036 236.866C301.215 237.877 300.576 239.024 300.148 240.254C299.525 241.397 299.12 242.646 298.957 243.937Z" fill="black"/>
</g>
<path d="M236.478 270.415L274.137 258.046L281.833 281.485L244.174 293.853L236.478 270.415Z" fill="#2298BC"/>
<path d="M236.514 270.442C237.05 270.75 237.615 271.006 238.201 271.205L242.888 273.04C246.905 274.553 252.382 276.616 258.555 278.879L258.81 278.973L258.971 278.759L259.6 277.928C263.698 272.571 267.393 267.576 270.032 263.973L273.178 259.701C273.58 259.189 273.934 258.643 274.236 258.067C273.745 258.511 273.297 258.999 272.897 259.527L269.616 263.665C266.871 267.174 263.122 272.062 259.011 277.487L258.381 278.303L258.796 278.183C252.637 275.933 247.079 273.951 243.062 272.558L238.295 270.937C237.718 270.717 237.121 270.551 236.514 270.442Z" fill="#2298BC"/>
<g opacity="0.2">
<path d="M236.514 270.442C237.05 270.75 237.615 271.006 238.201 271.205L242.888 273.04C246.905 274.553 252.382 276.616 258.555 278.879L258.81 278.973L258.971 278.759L259.6 277.928C263.698 272.571 267.393 267.576 270.032 263.973L273.178 259.701C273.58 259.189 273.934 258.643 274.236 258.067C273.745 258.511 273.297 258.999 272.897 259.527L269.616 263.665C266.871 267.174 263.122 272.062 259.011 277.487L258.381 278.303L258.796 278.183C252.637 275.933 247.079 273.951 243.062 272.558L238.295 270.937C237.718 270.717 237.121 270.551 236.514 270.442Z" fill="black"/>
</g>
<path d="M263.296 272.438C266.224 274.267 269.275 275.892 272.428 277.299C275.475 278.915 278.63 280.321 281.869 281.504C278.952 279.659 275.905 278.03 272.75 276.629C269.705 275.003 266.545 273.602 263.296 272.438Z" fill="#2298BC"/>
<g opacity="0.2">
<path d="M263.296 272.438C266.224 274.267 269.275 275.892 272.428 277.299C275.475 278.915 278.63 280.321 281.869 281.504C278.952 279.659 275.905 278.03 272.75 276.629C269.705 275.003 266.545 273.602 263.296 272.438Z" fill="black"/>
</g>
<path d="M243.531 294.094C245.179 291.22 246.616 288.23 247.83 285.148C249.26 282.156 250.469 279.062 251.445 275.893C249.796 278.771 248.359 281.765 247.147 284.853C245.715 287.84 244.506 290.929 243.531 294.094Z" fill="#2298BC"/>
<g opacity="0.2">
<path d="M243.531 294.094C245.179 291.22 246.616 288.23 247.83 285.148C249.26 282.156 250.469 279.062 251.445 275.893C249.796 278.771 248.359 281.765 247.147 284.853C245.715 287.84 244.506 290.929 243.531 294.094Z" fill="black"/>
</g>
<path d="M272.107 263.84C273.044 264.527 274.164 264.922 275.325 264.973C276.487 265.024 277.637 264.73 278.631 264.127C279.625 263.525 280.418 262.641 280.91 261.588C281.402 260.534 281.571 259.359 281.395 258.209C281.219 257.06 280.707 255.989 279.922 255.131C279.138 254.273 278.116 253.667 276.987 253.39C275.859 253.112 274.673 253.176 273.58 253.572C272.487 253.968 271.536 254.68 270.848 255.616C270.39 256.239 270.06 256.945 269.875 257.696C269.691 258.446 269.656 259.225 269.773 259.989C269.89 260.753 270.156 261.486 270.557 262.147C270.957 262.807 271.484 263.383 272.107 263.84Z" fill="#263238"/>
<path d="M271.839 258.014C273.083 258.939 274.405 259.754 275.789 260.451L276.727 260.973L276.901 261.067L276.995 260.907C277.628 259.901 278.166 258.838 278.602 257.732C277.855 258.66 277.205 259.661 276.66 260.719L276.914 260.639L275.977 260.103C274.661 259.287 273.277 258.588 271.839 258.014Z" fill="white"/>
<path d="M260.668 238.835L280.4 232.354L284.432 244.633L264.699 251.114L260.668 238.835Z" fill="#2298BC"/>
<g opacity="0.2">
<path d="M260.668 238.835L280.4 232.354L284.432 244.633L264.699 251.114L260.668 238.835Z" fill="black"/>
</g>
<path d="M260.71 238.848C260.985 239.013 261.277 239.148 261.581 239.25L264.045 240.214C266.12 241.005 269.013 242.089 272.253 243.268H272.387L272.468 243.147L272.789 242.719C274.945 239.88 276.806 237.295 278.266 235.406L279.873 233.223C280.08 232.954 280.264 232.667 280.422 232.366C280.174 232.598 279.949 232.853 279.752 233.13L278.025 235.299C276.592 237.134 274.624 239.692 272.481 242.531L272.146 242.973H272.36C269.133 241.795 266.227 240.75 264.112 240.027L261.621 239.183C261.331 239.038 261.025 238.925 260.71 238.848Z" fill="#2298BC"/>
<g opacity="0.2">
<path d="M260.71 238.848C260.985 239.013 261.277 239.148 261.581 239.25L264.045 240.214C266.12 241.005 269.013 242.089 272.253 243.268H272.387L272.468 243.147L272.789 242.719C274.945 239.88 276.806 237.295 278.266 235.406L279.873 233.223C280.08 232.954 280.264 232.667 280.422 232.366C280.174 232.598 279.949 232.853 279.752 233.13L278.025 235.299C276.592 237.134 274.624 239.692 272.481 242.531L272.146 242.973H272.36C269.133 241.795 266.227 240.75 264.112 240.027L261.621 239.183C261.331 239.038 261.025 238.925 260.71 238.848Z" fill="#2298BC"/>
</g>
<path d="M274.731 239.893C276.266 240.847 277.863 241.698 279.512 242.438C281.112 243.286 282.767 244.024 284.467 244.648C282.938 243.679 281.34 242.824 279.686 242.089C278.09 241.239 276.434 240.505 274.731 239.893Z" fill="#2298BC"/>
<g opacity="0.2">
<path d="M274.731 239.893C276.266 240.847 277.863 241.698 279.512 242.438C281.112 243.286 282.767 244.024 284.467 244.648C282.938 243.679 281.34 242.824 279.686 242.089C278.09 241.239 276.434 240.505 274.731 239.893Z" fill="#2298BC"/>
</g>
<path d="M264.38 251.237C265.244 249.732 265.996 248.165 266.63 246.549C267.374 244.979 268.009 243.359 268.531 241.701C266.907 244.769 265.519 247.957 264.38 251.237Z" fill="#2298BC"/>
<g opacity="0.2">
<path d="M264.38 251.237C265.244 249.732 265.996 248.165 266.63 246.549C267.374 244.979 268.009 243.359 268.531 241.701C266.907 244.769 265.519 247.957 264.38 251.237Z" fill="#2298BC"/>
</g>
<path d="M419.141 85.1387C420.503 90.4989 423.423 95.3349 427.533 99.0353C431.643 102.736 436.757 105.134 442.23 105.927C447.702 106.721 453.287 105.873 458.278 103.492C463.269 101.111 467.442 97.3036 470.27 92.5507C473.097 87.7977 474.452 82.313 474.163 76.7901C473.874 71.2671 471.954 65.9539 468.645 61.5223C465.337 57.0907 460.789 53.7397 455.577 51.893C450.364 50.0464 444.721 49.787 439.362 51.1476C432.175 52.9757 426.008 57.5831 422.216 63.9569C418.424 70.3308 417.318 77.9496 419.141 85.1387Z" fill="#333333"/>
<path d="M435.921 63.0941C435.425 63.295 438.599 72.6566 443.018 84.0137C443.674 85.661 444.357 87.2414 444.906 88.795L445.241 89.6387L446.085 89.3173C455.15 85.8217 461.779 82.9423 461.618 82.5271C461.458 82.1119 454.575 84.2816 445.442 87.5896L446.62 88.1253C446.031 86.5717 445.415 84.978 444.786 83.3307C440.38 71.9601 436.403 62.9467 435.921 63.0941Z" fill="white"/>
<path d="M75.4595 480.924C70.4499 478.571 64.8179 477.886 59.3902 478.969C56.471 479.451 53.4312 480.308 51.4359 482.504C49.4406 484.701 49.0791 488.558 51.3556 490.446C52.8295 491.433 54.5979 491.882 56.3638 491.719C60.6222 491.719 65.3358 490.915 68.7372 493.473C70.6789 494.933 71.9644 497.357 74.2811 498.08C75.4401 498.345 76.6534 498.226 77.7396 497.744C78.8259 497.261 79.7266 496.439 80.3071 495.402C81.4109 493.271 81.6553 490.797 80.9901 488.491C80.7153 486.888 80.0729 485.371 79.1133 484.058C78.1538 482.745 76.9032 481.672 75.4595 480.924Z" fill="#2298BC"/>
<g opacity="0.2">
<path d="M75.4595 480.924C70.4499 478.571 64.8179 477.886 59.3902 478.969C56.471 479.451 53.4312 480.308 51.4359 482.504C49.4406 484.701 49.0791 488.558 51.3556 490.446C52.8295 491.433 54.5979 491.882 56.3638 491.719C60.6222 491.719 65.3358 490.915 68.7372 493.473C70.6789 494.933 71.9644 497.357 74.2811 498.08C75.4401 498.345 76.6534 498.226 77.7396 497.744C78.8259 497.261 79.7266 496.439 80.3071 495.402C81.4109 493.271 81.6553 490.797 80.9901 488.491C80.7153 486.888 80.0729 485.371 79.1133 484.058C78.1538 482.745 76.9032 481.672 75.4595 480.924Z" fill="white"/>
</g>
<path d="M86.6667 459.281C83.6671 463.553 77.8554 462.134 75.1637 459.522C72.4721 456.91 71.3205 453.134 70.2894 449.531C67.9191 441.294 65.5355 432.656 67.2898 424.272C67.7227 421.732 68.8382 419.357 70.517 417.402C71.371 416.44 72.4625 415.72 73.6823 415.314C74.902 414.907 76.2072 414.828 77.467 415.085C80.3997 415.861 82.2209 418.741 83.5332 421.473C87.4117 429.54 89.4472 438.37 89.4922 447.321C89.4922 451.486 89.0101 455.852 86.6667 459.294" fill="#2298BC"/>
<path d="M94.8759 465.415C91.6352 461.558 91.0192 455.933 92.4655 451.098C94.1065 446.301 97.0342 442.048 100.929 438.803C105.364 434.886 110.516 431.866 116.101 429.91C118.267 429.035 120.596 428.638 122.93 428.745C124.095 428.815 125.226 429.167 126.224 429.771C127.223 430.376 128.059 431.214 128.662 432.214C130.255 435.254 128.729 438.91 127.068 441.964C124.148 447.279 120.817 452.357 117.105 457.152C114.119 460.995 110.691 464.799 106.138 466.527C101.585 468.254 96.8577 468.067 94.4473 464.906" fill="#2298BC"/>
<g opacity="0.1">
<path d="M94.8759 465.415C91.6352 461.558 91.0192 455.933 92.4655 451.098C94.1065 446.301 97.0342 442.048 100.929 438.803C105.364 434.886 110.516 431.866 116.101 429.91C118.267 429.035 120.596 428.638 122.93 428.745C124.095 428.815 125.226 429.167 126.224 429.771C127.223 430.376 128.059 431.214 128.662 432.214C130.255 435.254 128.729 438.91 127.068 441.964C124.148 447.279 120.817 452.357 117.105 457.152C114.119 460.995 110.691 464.799 106.138 466.527C101.585 468.254 96.8577 468.067 94.4473 464.906" fill="black"/>
</g>
<path d="M86.8683 523.741C86.7128 523.105 86.6231 522.454 86.6005 521.799C86.4532 520.379 86.2925 518.612 86.0782 516.442C85.8158 513.834 85.418 511.241 84.8864 508.674C84.1943 505.545 83.2493 502.477 82.0609 499.5C80.8986 496.525 79.3206 493.729 77.374 491.196C75.7937 489.132 73.7713 487.448 71.4551 486.268C69.8852 485.495 68.2047 484.971 66.4737 484.714C65.8234 484.692 65.1771 484.602 64.5454 484.446C65.1946 484.367 65.8512 484.367 66.5004 484.446C68.3023 484.581 70.066 485.035 71.7096 485.786C74.1428 486.942 76.2778 488.642 77.9498 490.754C79.9784 493.321 81.6164 496.173 82.8108 499.219C84.013 502.257 84.9494 505.394 85.6095 508.594C86.1137 511.191 86.4581 513.816 86.6407 516.455C86.8147 518.705 86.8817 520.473 86.9085 521.812C86.9605 522.455 86.947 523.101 86.8683 523.741Z" fill="#263238"/>
<path d="M86.5065 519.643C86.4661 519.345 86.4661 519.043 86.5065 518.745V516.174C86.5065 513.937 86.5065 510.696 86.3993 506.705C86.1985 498.67 85.5155 487.674 84.1764 475.554C82.8373 463.433 81.0697 452.518 79.4494 444.75C79.0744 442.795 78.6861 441.027 78.3245 439.487C77.963 437.946 77.6817 436.594 77.4005 435.469C77.1193 434.344 76.9586 433.62 76.7979 432.964C76.7069 432.673 76.6529 432.372 76.6373 432.067C76.773 432.335 76.8764 432.618 76.9452 432.911L77.6951 435.388C78.0299 436.46 78.3647 437.786 78.753 439.326C79.1414 440.866 79.5833 442.62 80.0118 444.589C82.1964 454.78 83.8369 465.081 84.9263 475.446C86.2655 487.594 86.8546 498.656 86.9082 506.665C86.9082 510.683 86.9082 513.911 86.7743 516.147C86.7118 517.192 86.6582 518.049 86.6136 518.719C86.6078 519.029 86.572 519.339 86.5065 519.643Z" fill="#263238"/>
<path d="M86.4538 498.321C86.3814 497.43 86.3814 496.534 86.4538 495.642C86.6042 493.201 86.8814 490.769 87.2841 488.357C88.6154 480.38 90.8993 472.592 94.0868 465.16C97.1641 457.648 101.584 450.759 107.13 444.83C108.089 443.813 109.113 442.86 110.196 441.977C110.665 441.575 111.08 441.187 111.535 440.866L112.714 440.049C113.435 439.506 114.196 439.018 114.99 438.589C112.38 440.645 109.898 442.859 107.558 445.218C102.197 451.196 97.8952 458.044 94.8367 465.468C93.0787 469.518 91.589 473.679 90.3774 477.924C89.2124 481.821 88.4357 485.41 87.8465 488.437C87.2573 491.464 86.9761 493.942 86.7752 495.656C86.7319 496.551 86.6245 497.441 86.4538 498.321Z" fill="#263238"/>
<path d="M290.117 321.763H234.049L211.846 259.728H214.953L236.968 318.736L290.117 319.045V321.763Z" fill="#455A64"/>
<path d="M314.891 329.598L312.815 523.915H307.11L309.427 328.165L314.891 329.598Z" fill="#263238"/>
<path d="M194.881 327.709C195.644 331.419 189.739 524.357 189.739 524.357H184.383L188.735 327.709H194.881Z" fill="#263238"/>
<path d="M129.331 321.763H367.732V331.594H348.061L360.863 523.285L355.265 523.594L342.45 331.594H149.391L140.03 523.674H134.419L143.78 331.594H129.331V321.763Z" fill="#263238"/>
<path d="M263.806 516.603V501.871L291.405 501.589L291.713 523.152L289.999 523.272C282.393 523.781 251.272 525.281 246.17 523.795C240.492 522.134 263.806 516.603 263.806 516.603Z" fill="#2298BC"/>
<path d="M281.723 523.031C282.102 520.699 283.333 518.589 285.177 517.112C286.988 515.645 289.279 514.905 291.605 515.036L291.686 522.75L281.723 523.031Z" fill="#F5F5F5"/>
<path d="M252.45 519.71C252.45 519.71 244.255 522.174 245.3 523.514C246.344 524.853 277.84 524.518 291.727 523.152V522.536L254.981 523.246C254.981 523.246 254.057 519.764 252.45 519.71Z" fill="#F5F5F5"/>
<path d="M291.633 522.509L290.294 522.616L285.285 522.884C281.054 523.085 275.202 523.273 268.734 523.353C262.266 523.433 256.401 523.353 252.169 523.259L247.148 523.112L245.809 523.045H245.34C245.495 523.025 245.653 523.025 245.809 523.045H247.148H252.169C256.401 523.045 262.266 523.045 268.721 523.045C275.175 523.045 281.041 522.804 285.272 522.67L290.294 522.509H291.633Z" fill="#263238"/>
<path d="M254.941 523.661C254.714 522.831 254.391 522.031 253.977 521.277C253.479 520.577 252.899 519.938 252.25 519.375C253.078 519.733 253.778 520.335 254.257 521.1C254.735 521.866 254.969 522.759 254.928 523.661H254.941Z" fill="#263238"/>
<path d="M263.043 519.455C262.963 519.455 262.561 519.027 262.159 518.397C261.757 517.768 261.476 517.219 261.557 517.165C261.637 517.112 262.025 517.594 262.44 518.223C262.728 518.585 262.934 519.006 263.043 519.455Z" fill="#263238"/>
<path d="M265.266 518.304C265.199 518.371 264.757 518.089 264.275 517.661C263.793 517.232 263.458 516.844 263.525 516.777C263.592 516.71 264.021 516.991 264.503 517.406C264.985 517.822 265.319 518.183 265.266 518.304Z" fill="#263238"/>
<path d="M266.645 515.625C266.189 515.803 265.698 515.871 265.212 515.826C264.726 515.89 264.232 515.844 263.765 515.692C264.221 515.515 264.712 515.446 265.198 515.491C265.684 515.429 266.178 515.475 266.645 515.625Z" fill="#263238"/>
<path d="M267.113 513.791C266.617 514.06 266.071 514.224 265.509 514.272C264.947 514.321 264.38 514.252 263.846 514.072C264.936 513.987 266.025 513.893 267.113 513.791Z" fill="#263238"/>
<path d="M262.078 517.058C261.489 517.16 260.886 517.16 260.297 517.058C259.657 516.99 259.024 516.86 258.409 516.67C258.032 516.564 257.668 516.416 257.324 516.228C257.219 516.172 257.125 516.096 257.049 516.004C256.974 515.912 256.917 515.806 256.882 515.692C256.853 515.56 256.861 515.422 256.906 515.294C256.951 515.166 257.031 515.053 257.137 514.969C257.809 514.636 258.576 514.545 259.307 514.711C260.039 514.877 260.691 515.29 261.154 515.879C261.436 516.225 261.642 516.627 261.757 517.058C261.757 517.366 261.757 517.54 261.757 517.54C261.579 516.994 261.302 516.485 260.94 516.04C260.538 515.572 260.007 515.232 259.413 515.062C259.067 514.951 258.701 514.909 258.338 514.939C257.975 514.969 257.621 515.07 257.298 515.237C257.016 515.451 257.137 515.772 257.445 515.96C257.765 516.131 258.101 516.27 258.449 516.375C259.048 516.574 259.661 516.726 260.284 516.83C261.395 516.964 262.078 516.964 262.078 517.058Z" fill="#263238"/>
<path d="M261.622 517.152C261.399 516.783 261.318 516.344 261.395 515.92C261.444 515.443 261.605 514.984 261.863 514.58C262.011 514.314 262.223 514.09 262.481 513.928C262.738 513.766 263.033 513.673 263.336 513.656C263.518 513.692 263.677 513.798 263.78 513.951C263.883 514.104 263.921 514.292 263.885 514.473C263.849 514.754 263.753 515.023 263.604 515.263C263.367 515.654 263.089 516.017 262.774 516.348C262.507 516.671 262.161 516.92 261.77 517.071C261.77 517.071 262.118 516.75 262.6 516.188C262.879 515.858 263.122 515.498 263.323 515.116C263.564 514.741 263.725 514.058 263.323 513.991C262.921 513.924 262.426 514.393 262.158 514.754C261.92 515.101 261.756 515.493 261.676 515.906C261.61 516.318 261.592 516.736 261.622 517.152Z" fill="#263238"/>
<path d="M291.457 514.969C291.457 514.969 290.667 514.902 289.422 515.063C287.8 515.269 286.267 515.918 284.989 516.938C283.747 518.008 282.82 519.397 282.311 520.956C281.909 522.134 281.869 522.938 281.815 522.924C281.762 522.911 281.815 522.724 281.815 522.375C281.861 521.868 281.956 521.365 282.097 520.875C282.578 519.25 283.539 517.808 284.853 516.738C286.167 515.667 287.773 515.018 289.462 514.875C289.969 514.818 290.481 514.818 290.988 514.875C291.149 514.876 291.308 514.908 291.457 514.969Z" fill="#263238"/>
<path d="M288.471 503.572C288.792 507.34 288.882 511.123 288.739 514.902C288.527 513.021 288.428 511.13 288.444 509.237C288.347 507.35 288.356 505.458 288.471 503.572Z" fill="#263238"/>
<path d="M278.215 520.38C276.901 520.706 275.55 520.854 274.198 520.822C272.852 520.909 271.501 520.814 270.18 520.54C270.18 520.447 271.988 520.54 274.198 520.54C276.407 520.54 278.201 520.286 278.215 520.38Z" fill="#263238"/>
<path d="M283.625 520.313C283.625 520.38 283.478 520.701 283.304 521.116C283.13 521.532 283.022 521.893 282.929 521.893C282.835 521.893 282.781 521.451 282.996 520.983C283.21 520.514 283.558 520.246 283.625 520.313Z" fill="#263238"/>
<path d="M285.633 517.755C285.633 517.822 285.526 518.103 285.244 518.398C284.963 518.692 284.682 518.88 284.615 518.813C284.548 518.746 284.722 518.465 285.003 518.17C285.285 517.875 285.566 517.688 285.633 517.755Z" fill="#263238"/>
<path d="M288.538 516.563C288.538 516.657 288.149 516.657 287.748 516.804C287.346 516.951 287.051 517.179 286.984 517.112C286.918 517.045 287.132 516.67 287.641 516.496C288.149 516.322 288.565 516.483 288.538 516.563Z" fill="#263238"/>
<path d="M290.588 516C290.588 516.08 290.467 516.228 290.24 516.321C290.012 516.415 289.798 516.415 289.771 516.321C289.744 516.228 289.892 516.094 290.119 516C290.347 515.906 290.588 515.906 290.588 516Z" fill="#263238"/>
<path d="M209.545 501.737L215.598 488.277L240.867 499.38L232.283 519.147L230.677 518.558C223.526 515.88 194.521 504.455 190.503 501C185.964 497.143 209.545 501.737 209.545 501.737Z" fill="#2298BC"/>
<path d="M223.164 514.929C224.467 512.941 226.462 511.509 228.761 510.911C231.011 510.327 233.397 510.599 235.457 511.674L232.364 518.733L223.164 514.929Z" fill="#F5F5F5"/>
<path d="M197.855 499.862C197.855 499.862 189.378 498.723 189.82 500.384C190.262 502.045 219.067 514.687 232.284 519.134L232.484 518.558L198.712 504.08C198.712 504.08 199.301 500.571 197.855 499.862Z" fill="#F5F5F5"/>
<path d="M232.859 518.732L232.404 518.585L231.065 518.116L226.378 516.295C222.441 514.728 217.004 512.505 211.099 509.906C205.193 507.308 199.864 504.857 196.047 503.009L191.534 500.813L190.316 500.183C190.169 500.124 190.029 500.048 189.901 499.956L190.343 500.13L191.588 500.692L196.141 502.808C199.984 504.576 205.314 507.014 211.233 509.598C217.152 512.183 222.562 514.46 226.472 516.081L231.105 517.996L232.364 518.518L232.859 518.732Z" fill="#263238"/>
<path d="M198.498 504.496C198.639 503.646 198.675 502.783 198.605 501.925C198.429 501.082 198.164 500.261 197.815 499.474C198.472 500.107 198.873 500.961 198.94 501.871C199.119 502.771 198.961 503.704 198.498 504.496Z" fill="#263238"/>
<path d="M207.562 503.973C207.468 503.973 207.308 503.398 207.187 502.634C207.067 501.871 207.053 501.295 207.187 501.295C207.321 501.295 207.442 501.871 207.562 502.634C207.672 503.074 207.672 503.534 207.562 503.973Z" fill="#263238"/>
<path d="M210.134 503.799C210.054 503.799 209.773 503.384 209.505 502.808C209.237 502.232 209.103 501.723 209.184 501.683C209.264 501.643 209.545 502.085 209.813 502.674C210.081 503.264 210.242 503.759 210.134 503.799Z" fill="#263238"/>
<path d="M212.477 501.978C212.007 501.933 211.551 501.791 211.138 501.563C210.401 501.255 209.798 500.933 209.879 500.853C209.959 500.773 210.535 500.947 211.218 501.255C211.901 501.563 212.517 501.884 212.477 501.978Z" fill="#263238"/>
<path d="M213.656 500.491C213.092 500.583 212.514 500.504 211.996 500.263C211.447 500.128 210.951 499.829 210.576 499.406C211.105 499.542 211.621 499.726 212.116 499.955C212.645 500.084 213.161 500.264 213.656 500.491Z" fill="#263238"/>
<path d="M207.724 501.402C207.147 501.253 206.6 501.008 206.103 500.679C205.553 500.347 205.033 499.966 204.55 499.54C204.248 499.289 203.974 499.006 203.733 498.697C203.592 498.499 203.53 498.255 203.559 498.014C203.583 497.883 203.645 497.761 203.738 497.666C203.832 497.571 203.951 497.505 204.081 497.478C204.566 497.458 205.049 497.546 205.495 497.735C205.942 497.925 206.34 498.212 206.662 498.575C206.984 498.937 207.221 499.367 207.356 499.833C207.491 500.299 207.521 500.789 207.443 501.268C207.427 501.433 207.377 501.593 207.295 501.737C207.343 501.162 207.298 500.583 207.161 500.023C206.986 499.432 206.641 498.906 206.17 498.509C205.624 498.02 204.908 497.765 204.175 497.799C203.827 497.866 203.8 498.215 204.014 498.523C204.235 498.808 204.481 499.073 204.751 499.313C205.219 499.734 205.716 500.124 206.237 500.478C207.135 501.081 207.751 501.348 207.724 501.402Z" fill="#263238"/>
<path d="M207.268 501.295C207.226 500.869 207.335 500.443 207.576 500.089C207.817 499.686 208.147 499.342 208.54 499.085C208.784 498.906 209.068 498.791 209.368 498.751C209.668 498.711 209.973 498.748 210.254 498.857C210.405 498.963 210.507 499.123 210.54 499.304C210.572 499.484 210.532 499.67 210.428 499.822C210.282 500.066 210.08 500.273 209.839 500.424C209.465 500.69 209.061 500.911 208.634 501.08C208.254 501.261 207.835 501.344 207.416 501.322C207.416 501.322 207.871 501.174 208.54 500.853C208.935 500.673 209.308 500.448 209.652 500.183C210.027 499.942 210.442 499.393 210.067 499.138C209.842 499.073 209.605 499.058 209.373 499.095C209.142 499.132 208.921 499.22 208.728 499.353C208.36 499.567 208.045 499.859 207.804 500.21C207.595 500.556 207.416 500.919 207.268 501.295Z" fill="#263238"/>
<path d="M235.362 511.607C235.362 511.607 234.679 511.219 233.474 510.857C231.914 510.367 230.246 510.33 228.665 510.75C227.084 511.169 225.655 512.029 224.542 513.228C223.685 514.152 223.324 514.862 223.27 514.821C223.322 514.642 223.398 514.471 223.498 514.313C223.742 513.871 224.034 513.458 224.368 513.08C225.47 511.787 226.935 510.854 228.573 510.402C230.213 509.98 231.941 510.049 233.541 510.603C234.009 510.774 234.458 510.994 234.88 511.259C235.229 511.446 235.376 511.607 235.362 511.607Z" fill="#263238"/>
<path d="M237.359 499.916C236.791 501.743 236.107 503.532 235.311 505.273C234.616 507.034 233.825 508.755 232.94 510.429C233.522 508.626 234.211 506.86 235.003 505.139C235.691 503.355 236.477 501.611 237.359 499.916Z" fill="#263238"/>
<path d="M221.074 511.072C219.74 510.817 218.444 510.394 217.217 509.813C215.948 509.34 214.75 508.696 213.655 507.898C213.655 507.817 215.302 508.634 217.351 509.505C219.4 510.375 221.101 510.978 221.074 511.072Z" fill="#263238"/>
<path d="M226.029 513.228C226.029 513.322 225.735 513.523 225.4 513.831C225.065 514.139 224.824 514.433 224.744 514.38C224.663 514.326 224.744 513.924 225.172 513.576C225.601 513.228 226.003 513.147 226.029 513.228Z" fill="#263238"/>
<path d="M228.908 511.728C228.908 511.822 228.667 512.009 228.292 512.157C227.917 512.304 227.582 512.357 227.542 512.277C227.502 512.197 227.783 511.996 228.158 511.849C228.533 511.701 228.881 511.607 228.908 511.728Z" fill="#263238"/>
<path d="M232.042 511.835C232.042 511.915 231.654 511.768 231.225 511.741C230.797 511.714 230.449 511.741 230.409 511.741C230.368 511.741 230.73 511.393 231.252 511.447C231.774 511.5 232.109 511.768 232.042 511.835Z" fill="#263238"/>
<path d="M234.172 512.17C234.172 512.263 233.958 512.33 233.717 512.317C233.476 512.304 233.275 512.223 233.275 512.13C233.275 512.036 233.489 511.969 233.73 511.982C233.971 511.996 234.172 512.076 234.172 512.17Z" fill="#263238"/>
<path d="M459.971 403.286L479.897 254.371C480.022 253.444 479.937 252.501 479.651 251.611C479.364 250.721 478.883 249.906 478.241 249.226C477.599 248.546 476.814 248.017 475.942 247.679C475.07 247.341 474.134 247.202 473.202 247.273L425.168 251.29C423.025 251.471 421.016 252.405 419.498 253.928C417.98 255.451 417.052 257.464 416.879 259.607L405.175 400.594L459.971 403.286Z" fill="#0D507D"/>
<g opacity="0.2">
<path d="M459.971 403.286L479.897 254.371C480.022 253.444 479.937 252.501 479.651 251.611C479.364 250.721 478.883 249.906 478.241 249.226C477.599 248.546 476.814 248.017 475.942 247.679C475.07 247.341 474.134 247.202 473.202 247.273L425.168 251.29C423.025 251.471 421.016 252.405 419.498 253.928C417.98 255.451 417.052 257.464 416.879 259.607L405.175 400.594L459.971 403.286Z" fill="black"/>
</g>
<path d="M413.64 184.433C414.041 178.755 415.528 173.223 416.318 167.598C417.108 161.973 417.269 156.054 415.046 150.817C413.685 147.898 411.762 145.276 409.385 143.102C407.009 140.928 404.227 139.244 401.199 138.147C395.117 135.989 388.623 135.247 382.211 135.978C381.052 136.013 379.91 136.272 378.85 136.741C378.326 136.984 377.874 137.358 377.538 137.828C377.203 138.297 376.995 138.846 376.935 139.42C376.922 139.705 376.968 139.989 377.069 140.256C377.171 140.522 377.327 140.765 377.527 140.968C377.727 141.172 377.966 141.332 378.231 141.439C378.495 141.546 378.779 141.597 379.064 141.589C376.618 141.839 374.207 142.356 371.873 143.13C370.924 143.398 370.1 143.991 369.543 144.804C369.317 145.313 369.227 145.872 369.284 146.427C369.34 146.981 369.54 147.511 369.864 147.964C370.53 148.862 371.351 149.633 372.288 150.241C372.001 150.185 371.706 150.185 371.42 150.243C371.133 150.301 370.861 150.414 370.619 150.577C370.376 150.74 370.168 150.949 370.006 151.193C369.845 151.436 369.733 151.709 369.677 151.996C369.591 152.581 369.629 153.178 369.788 153.748C369.947 154.317 370.224 154.848 370.601 155.304C371.284 156.268 372.167 157.058 372.877 157.982C375.77 161.826 375.207 167.17 374.511 171.938" fill="#263238"/>
<path d="M413.116 217.701L386.052 217.219C385.691 214.085 385.169 201.898 385.169 201.898C385.169 201.898 373.853 200.853 373.023 189.657C372.193 178.46 372.541 152.612 372.541 152.612C378.74 149.482 385.662 148.064 392.593 148.504C399.523 148.945 406.211 151.227 411.964 155.117L413.705 156.295L413.116 217.701Z" fill="#B78876"/>
<path d="M376.29 172.031C376.518 171.802 376.673 171.511 376.735 171.195C376.797 170.878 376.764 170.55 376.64 170.252C376.517 169.954 376.307 169.699 376.039 169.52C375.77 169.341 375.455 169.245 375.132 169.245C374.809 169.245 374.494 169.341 374.225 169.52C373.957 169.699 373.747 169.954 373.623 170.252C373.499 170.55 373.467 170.878 373.529 171.195C373.591 171.511 373.746 171.802 373.974 172.031C374.124 172.186 374.305 172.308 374.504 172.392C374.703 172.476 374.916 172.519 375.132 172.519C375.348 172.519 375.561 172.476 375.76 172.392C375.959 172.308 376.139 172.186 376.29 172.031Z" fill="#263238"/>
<path d="M373.437 169.313C373.624 169.5 374.669 168.589 376.209 168.482C377.749 168.375 378.887 169.112 379.088 168.897C379.289 168.683 378.967 168.469 378.458 168.121C377.767 167.694 376.958 167.496 376.148 167.556C375.337 167.617 374.567 167.931 373.946 168.455C373.49 168.871 373.343 169.232 373.437 169.313Z" fill="#263238"/>
<path d="M391.302 169.567C391.037 169.753 390.832 170.013 390.715 170.315C390.597 170.617 390.572 170.947 390.643 171.263C390.714 171.58 390.877 171.868 391.111 172.091C391.346 172.314 391.642 172.463 391.961 172.518C392.28 172.572 392.609 172.531 392.904 172.399C393.2 172.266 393.45 172.049 393.622 171.775C393.794 171.5 393.88 171.18 393.87 170.857C393.86 170.533 393.754 170.219 393.565 169.956C393.443 169.781 393.287 169.633 393.106 169.519C392.926 169.405 392.725 169.327 392.515 169.291C392.304 169.255 392.089 169.261 391.881 169.308C391.673 169.356 391.476 169.444 391.302 169.567Z" fill="#263238"/>
<path d="M390.284 169.647C390.472 169.821 391.516 168.911 393.056 168.804C394.596 168.696 395.734 169.433 395.922 169.232C396.109 169.031 395.815 168.79 395.292 168.455C394.606 168.021 393.798 167.82 392.987 167.88C392.177 167.94 391.408 168.259 390.793 168.79C390.338 169.192 390.19 169.567 390.284 169.647Z" fill="#263238"/>
<path d="M384.875 182.759C384.063 182.491 383.212 182.364 382.357 182.384C381.942 182.384 381.621 182.291 381.581 182.076C381.546 181.671 381.62 181.265 381.795 180.898C382.13 179.853 382.478 178.795 382.826 177.683C384.232 173.116 385.196 169.353 384.955 169.286C384.714 169.219 383.402 172.862 381.982 177.429C381.648 178.541 381.34 179.612 381.018 180.657C380.798 181.197 380.761 181.794 380.911 182.358C380.978 182.509 381.08 182.642 381.208 182.746C381.336 182.851 381.486 182.924 381.648 182.96C381.875 182.985 382.104 182.985 382.331 182.96C383.184 183.038 384.044 182.97 384.875 182.759Z" fill="#263238"/>
<path d="M390.003 184.152C391.543 183.094 385.718 186.831 382.571 186.831C383.147 187.603 383.969 188.156 384.901 188.399C385.833 188.643 386.82 188.562 387.7 188.17C391.021 186.764 390.003 184.152 390.003 184.152Z" fill="white"/>
<path d="M385.129 201.737C390.31 201.52 395.309 199.762 399.484 196.688C399.484 196.688 396.525 204.964 385.29 204.643L385.129 201.737Z" fill="#A36957"/>
<path d="M414.067 164.732L413.491 179.264C413.491 179.264 408.389 177.71 408.055 177.563C407.72 177.415 408.148 159.764 408.148 159.764C408.148 159.764 408.858 153.067 404.519 151.527C399.953 149.88 397.971 153.188 391.503 154.206C370.171 157.808 371.631 151.259 371.631 151.259C371.631 151.259 368.953 148.38 374.43 145.219C379.907 142.058 393.606 140.987 401.105 143.572C415.835 148.648 416.719 153.697 416.719 158.156C416.719 164.518 414.067 164.732 414.067 164.732Z" fill="#263238"/>
<path d="M411.562 166.232C411.803 166.138 419.865 165.094 419.101 174.616C418.338 184.138 408.978 180.228 408.978 179.973C408.978 179.719 411.562 166.232 411.562 166.232Z" fill="#B78876"/>
<path d="M412.165 176.786C412.165 176.786 412.326 176.92 412.593 177.067C412.977 177.267 413.424 177.31 413.839 177.188C414.488 176.855 415.035 176.35 415.419 175.73C415.804 175.109 416.012 174.396 416.021 173.666C416.114 172.848 416.023 172.019 415.754 171.241C415.682 170.943 415.54 170.665 415.34 170.432C415.14 170.199 414.887 170.018 414.602 169.902C414.415 169.838 414.212 169.84 414.026 169.908C413.841 169.977 413.685 170.107 413.584 170.277C413.437 170.532 413.491 170.733 413.437 170.746C413.383 170.759 413.249 170.558 413.357 170.183C413.422 169.948 413.57 169.744 413.772 169.608C414.054 169.441 414.388 169.384 414.709 169.447C415.094 169.553 415.446 169.757 415.729 170.038C416.013 170.32 416.22 170.67 416.329 171.054C416.667 171.904 416.791 172.824 416.691 173.733C416.477 175.648 415.352 177.362 414.013 177.657C413.751 177.71 413.48 177.704 413.22 177.639C412.961 177.574 412.719 177.452 412.513 177.282C412.165 177.081 412.138 176.853 412.165 176.786Z" fill="#A36957"/>
<path d="M305.211 294.643C305.211 294.643 291.82 294 289.142 295.219C284.508 297.241 270.715 318.871 271.412 318.871C273.501 318.871 277.799 318.871 277.799 318.871L299.225 310.741L304.274 312.014L305.211 294.643Z" fill="#B78876"/>
<path d="M247.629 356.746C247.629 356.746 207.563 495.536 207.469 494.853C207.376 494.17 243.384 512.17 243.384 512.17L267.676 411.804L247.629 356.746Z" fill="#263238"/>
<path d="M244.175 513.014L206.225 494.491L207.872 489.416L246.117 507.965L244.175 513.014Z" fill="#455A64"/>
<path d="M249.156 461.96C249.357 461.96 249.772 461.143 250.107 460.031C250.442 458.92 250.549 457.942 250.348 457.889C250.147 457.835 249.732 458.692 249.397 459.817C249.062 460.942 248.969 461.893 249.156 461.96Z" fill="#455A64"/>
<path d="M246.677 470.089C246.878 470.089 247.32 469.286 247.655 468.174C247.99 467.063 248.124 466.098 247.936 466.031C247.749 465.964 247.307 466.835 246.959 467.947C246.611 469.058 246.49 469.996 246.677 470.089Z" fill="#455A64"/>
<path d="M244.093 478.125C244.294 478.192 244.736 477.335 245.098 476.223C245.459 475.112 245.593 474.161 245.406 474.094C245.218 474.027 244.763 474.884 244.401 475.996C244.04 477.107 243.906 478.125 244.093 478.125Z" fill="#455A64"/>
<path d="M241.389 486.161C241.59 486.228 242.045 485.384 242.42 484.272C242.795 483.161 242.956 482.21 242.755 482.143C242.554 482.076 242.098 482.92 241.724 484.031C241.349 485.143 241.201 486.161 241.389 486.161Z" fill="#455A64"/>
<path d="M238.577 494.197C238.764 494.197 239.246 493.42 239.634 492.322C240.023 491.223 240.197 490.272 239.996 490.205C239.795 490.138 239.34 490.969 238.938 492.08C238.536 493.192 238.362 494.089 238.577 494.197Z" fill="#455A64"/>
<path d="M235.683 502.112C235.884 502.112 236.366 501.348 236.767 500.25C237.169 499.152 237.357 498.201 237.169 498.134C236.982 498.067 236.486 498.898 236.084 499.996C235.683 501.094 235.455 502.045 235.683 502.112Z" fill="#455A64"/>
<path d="M237.786 505.447C238.117 505.002 238.387 504.516 238.59 504C239.059 503.036 239.701 501.63 240.438 499.875C241.924 496.366 243.759 491.424 245.607 485.92C247.455 480.416 249.008 475.38 250.106 471.737C250.615 470.023 251.044 468.576 251.445 467.411C251.639 466.889 251.765 466.345 251.82 465.791C251.558 466.278 251.343 466.789 251.178 467.317C250.803 468.322 250.294 469.768 249.678 471.576L244.977 485.679C243.143 491.183 241.389 496.139 240.023 499.688L238.389 503.88C238.133 504.379 237.931 504.904 237.786 505.447Z" fill="#455A64"/>
<path d="M434.554 347.103C434.219 339.75 438.397 387.455 401.732 388.714C365.067 389.973 290.158 389.424 290.158 389.424L298.929 510.402H254.939L245.753 381.696C245.753 381.696 241.066 344.411 266.576 339.656C282.538 336.67 381.806 335.719 381.806 335.719L434.554 347.103Z" fill="#263238"/>
<path d="M299.934 510.657H253.614V503.451L299.934 503.518V510.657Z" fill="#455A64"/>
<path d="M372.395 383.036C372.239 383.016 372.081 383.016 371.926 383.036L370.587 382.955L365.23 382.714L345.345 381.951L278.269 379.647H277.84V380.076C278.443 385.005 278.952 390.214 279.38 395.505C279.969 403.072 280.532 410.451 281.081 417.576C281.63 424.701 282.42 431.558 283.103 438.094C284.442 451.139 285.701 462.897 286.745 472.795C287.79 482.692 288.66 490.621 289.263 496.179C289.571 498.857 289.812 501.054 289.986 502.54C290.066 503.237 290.133 503.786 290.187 504.188C290.203 504.377 290.235 504.565 290.28 504.75C290.301 504.563 290.301 504.375 290.28 504.188C290.28 503.772 290.2 503.223 290.146 502.527C290.013 501.027 289.812 498.884 289.557 496.152C289.022 490.594 288.218 482.598 287.267 472.741C286.317 462.884 285.098 451.085 283.786 438.014C283.143 431.478 282.447 424.621 281.817 417.509C281.188 410.397 280.706 403.005 280.13 395.451C279.701 390.094 279.193 384.938 278.577 379.982L278.202 380.397L345.291 382.447L365.177 382.996L370.533 383.103H371.872C372.049 383.107 372.225 383.085 372.395 383.036Z" fill="#455A64"/>
<path d="M368.163 377.799C368.163 378 369.1 378.188 370.279 378.214C371.457 378.241 372.395 378.107 372.395 377.906C372.395 377.705 371.457 377.505 370.292 377.478C369.127 377.451 368.163 377.598 368.163 377.799Z" fill="#455A64"/>
<path d="M359.687 377.599C359.687 377.8 360.624 377.987 361.802 378.014C362.981 378.041 363.918 377.907 363.932 377.706C363.945 377.505 362.981 377.317 361.816 377.277C360.651 377.237 359.687 377.398 359.687 377.599Z" fill="#455A64"/>
<path d="M351.21 377.397C351.21 377.612 352.147 377.786 353.326 377.826C354.504 377.866 355.442 377.705 355.455 377.505C355.468 377.304 354.504 377.116 353.339 377.089C352.174 377.063 351.21 377.196 351.21 377.397Z" fill="#455A64"/>
<path d="M342.733 377.197C342.733 377.411 343.671 377.598 344.849 377.625C346.028 377.652 346.965 377.505 346.978 377.304C346.992 377.103 346.028 376.915 344.863 376.889C343.698 376.862 342.733 376.996 342.733 377.197Z" fill="#455A64"/>
<path d="M334.257 377.009C334.257 377.21 335.194 377.397 336.373 377.424C337.551 377.451 338.488 377.304 338.502 377.103C338.515 376.902 337.551 376.714 336.386 376.687C335.221 376.661 334.257 376.795 334.257 377.009Z" fill="#455A64"/>
<path d="M325.78 376.808C325.78 377.009 326.718 377.196 327.896 377.223C329.074 377.25 330.012 377.103 330.025 376.902C330.039 376.701 329.074 376.513 327.909 376.487C326.744 376.46 325.794 376.607 325.78 376.808Z" fill="#455A64"/>
<path d="M317.304 376.607C317.304 376.808 318.241 376.996 319.42 377.022C320.598 377.049 321.535 376.902 321.549 376.701C321.562 376.5 320.611 376.313 319.433 376.286C318.254 376.259 317.371 376.406 317.304 376.607Z" fill="#455A64"/>
<path d="M308.827 376.407C308.827 376.607 309.765 376.795 310.943 376.822C312.121 376.849 313.059 376.715 313.072 376.5C313.086 376.286 312.135 376.112 310.956 376.085C309.778 376.058 308.841 376.206 308.827 376.407Z" fill="#455A64"/>
<path d="M300.351 376.205C300.351 376.406 301.288 376.594 302.466 376.621C303.645 376.647 304.582 376.513 304.596 376.313C304.609 376.112 303.658 375.911 302.48 375.884C301.301 375.857 300.364 376.005 300.351 376.205Z" fill="#455A64"/>
<path d="M291.927 376.005C291.927 376.206 292.878 376.393 294.043 376.42C295.208 376.447 296.158 376.313 296.172 376.112C296.185 375.911 295.234 375.71 294.056 375.683C292.878 375.657 291.927 375.804 291.927 376.005Z" fill="#455A64"/>
<path d="M283.397 375.804C283.397 376.005 284.348 376.192 285.513 376.219C286.678 376.246 287.629 376.112 287.642 375.911C287.656 375.71 286.705 375.522 285.527 375.496C284.348 375.469 283.411 375.603 283.397 375.804Z" fill="#455A64"/>
<path d="M274.919 375.603C274.919 375.817 275.87 376.005 277.035 376.031C278.2 376.058 279.164 375.911 279.164 375.71C279.164 375.509 278.227 375.322 277.048 375.295C275.87 375.268 274.932 375.402 274.919 375.603Z" fill="#455A64"/>
<path d="M274.932 383.29C275.146 383.29 275.213 382.312 275.093 381.147C274.972 379.982 274.731 379.058 274.53 379.071C274.33 379.085 274.249 380.049 274.37 381.214C274.49 382.379 274.731 383.317 274.932 383.29Z" fill="#455A64"/>
<path d="M275.763 391.728C275.964 391.728 276.044 390.75 275.924 389.585C275.803 388.42 275.549 387.496 275.348 387.509C275.147 387.522 275.08 388.487 275.187 389.652C275.294 390.817 275.562 391.754 275.763 391.728Z" fill="#455A64"/>
<path d="M276.595 400.165C276.796 400.165 276.876 399.187 276.756 398.022C276.635 396.857 276.381 395.933 276.18 395.946C275.979 395.96 275.912 396.937 276.019 398.103C276.126 399.268 276.394 400.192 276.595 400.165Z" fill="#455A64"/>
<path d="M277.423 408.603C277.624 408.603 277.691 407.625 277.584 406.46C277.477 405.295 277.209 404.371 277.008 404.384C276.807 404.397 276.74 405.375 276.848 406.54C276.955 407.705 277.196 408.629 277.423 408.603Z" fill="#455A64"/>
<path d="M278.253 417.054C278.454 417.054 278.521 416.063 278.414 414.898C278.307 413.732 278.039 412.808 277.838 412.835C277.637 412.862 277.557 413.813 277.678 414.978C277.798 416.143 278.053 417.067 278.253 417.054Z" fill="#455A64"/>
<path d="M279.084 425.491C279.285 425.491 279.352 424.5 279.231 423.335C279.11 422.17 278.869 421.246 278.669 421.273C278.468 421.299 278.387 422.25 278.508 423.415C278.628 424.581 278.869 425.505 279.084 425.491Z" fill="#455A64"/>
<path d="M279.875 433.929C280.09 433.929 280.157 432.951 280.036 431.786C279.916 430.621 279.675 429.683 279.46 429.71C279.246 429.737 279.193 430.688 279.313 431.853C279.434 433.018 279.701 433.929 279.875 433.929Z" fill="#455A64"/>
<path d="M280.732 442.366C280.933 442.366 281.013 441.389 280.893 440.223C280.772 439.058 280.518 438.121 280.317 438.148C280.116 438.174 280.049 439.125 280.156 440.29C280.263 441.456 280.531 442.38 280.732 442.366Z" fill="#455A64"/>
<path d="M281.562 450.804C281.763 450.804 281.83 449.826 281.723 448.661C281.616 447.496 281.348 446.572 281.147 446.585C280.946 446.598 280.879 447.563 280.986 448.728C281.093 449.893 281.361 450.831 281.562 450.804Z" fill="#455A64"/>
<path d="M282.392 459.241C282.593 459.241 282.66 458.264 282.553 457.098C282.446 455.933 282.178 455.009 281.977 455.023C281.776 455.036 281.709 456 281.816 457.165C281.923 458.331 282.191 459.268 282.392 459.241Z" fill="#455A64"/>
<path d="M283.222 467.679C283.423 467.679 283.49 466.701 283.383 465.536C283.276 464.371 283.008 463.447 282.807 463.46C282.606 463.473 282.526 464.438 282.646 465.603C282.767 466.768 283.021 467.706 283.222 467.679Z" fill="#455A64"/>
<path d="M284.04 476.116C284.254 476.116 284.321 475.139 284.2 473.973C284.08 472.808 283.839 471.884 283.638 471.898C283.437 471.911 283.357 472.889 283.477 474.054C283.598 475.219 283.892 476.143 284.04 476.116Z" fill="#455A64"/>
<path d="M284.871 484.554C285.071 484.554 285.152 483.576 285.031 482.411C284.911 481.246 284.67 480.322 284.455 480.335C284.241 480.348 284.188 481.326 284.308 482.491C284.429 483.657 284.67 484.581 284.871 484.554Z" fill="#455A64"/>
<path d="M285.701 493.004C285.902 493.004 285.982 492.013 285.861 490.848C285.741 489.683 285.486 488.759 285.286 488.786C285.085 488.813 285.018 489.763 285.125 490.929C285.232 492.094 285.5 493.018 285.701 493.004Z" fill="#455A64"/>
<path d="M286.57 501.442C286.771 501.442 286.838 500.464 286.731 499.299C286.623 498.134 286.356 497.196 286.155 497.223C285.954 497.25 285.887 498.201 285.994 499.366C286.101 500.531 286.329 501.455 286.57 501.442Z" fill="#455A64"/>
<path d="M286.971 505.915C287.172 505.915 287.333 505.822 287.32 505.755C287.306 505.688 287.145 505.634 286.945 505.661C286.744 505.688 286.583 505.755 286.583 505.822C286.583 505.889 286.771 505.929 286.971 505.915Z" fill="#455A64"/>
<path d="M284.159 383.786C284.928 384.995 285.902 386.06 287.038 386.933C288.014 387.982 289.16 388.861 290.426 389.532C288.681 387.272 286.561 385.328 284.159 383.786Z" fill="#263238"/>
<path d="M281.121 385.42C282.576 386.471 284.166 387.323 285.848 387.951C287.434 388.794 289.128 389.416 290.883 389.799C289.427 388.748 287.837 387.897 286.156 387.268C284.569 386.427 282.875 385.805 281.121 385.42Z" fill="#263238"/>
<path d="M370.573 289.42C370.573 289.42 375.059 241.353 383.027 220.313L381.446 219.121L383.817 210.83L413.625 207.214L413.17 213.683C417.569 215.665 421.163 219.084 423.36 223.38C434.073 246.067 428.717 272.558 434.462 321.643C434.462 321.643 441.157 344.665 434.247 351.871L369.207 336.71L372.273 321.871C343.884 321.335 297.203 316.112 297.203 316.112L298.542 289.246C298.542 289.246 368.296 289.661 370.573 289.42Z" fill="#455A64"/>
<path d="M383.869 210.791C382.924 212.476 382.199 214.277 381.713 216.148C381.422 216.879 381.224 217.644 381.124 218.424C381.105 218.829 381.239 219.226 381.499 219.536C381.714 219.79 381.991 219.983 382.303 220.099C383.428 220.447 384.07 220.206 384.07 220.099C384.07 219.991 383.374 219.978 382.53 219.576C382.304 219.475 382.114 219.309 381.982 219.099C381.851 218.889 381.786 218.645 381.794 218.398C381.946 217.691 382.152 216.997 382.41 216.322C383.125 214.546 383.615 212.688 383.869 210.791Z" fill="#E0E0E0"/>
<path d="M376.76 246.576C376.76 246.79 388.812 246.951 403.542 246.951C418.272 246.951 430.324 246.79 430.324 246.576C430.324 246.362 418.272 246.214 403.542 246.214C388.812 246.214 376.76 246.429 376.76 246.576Z" fill="#263238"/>
<path d="M379.558 233.036C379.558 233.237 390.19 233.411 403.287 233.411C416.383 233.411 427.016 233.237 427.016 233.036C427.016 232.835 416.396 232.674 403.287 232.674C390.177 232.674 379.558 232.835 379.558 233.036Z" fill="#263238"/>
<path d="M383.469 221.13C383.469 221.331 392.254 221.491 403.101 221.491C413.948 221.491 422.719 221.331 422.719 221.13C422.719 220.929 413.934 220.755 403.101 220.755C392.267 220.755 383.469 220.983 383.469 221.13Z" fill="#263238"/>
<path d="M383.857 212.719C388.86 213.098 393.88 213.223 398.895 213.094C403.911 213.223 408.93 213.098 413.934 212.719C413.934 212.518 407.238 212.357 398.895 212.357C390.553 212.357 383.857 212.518 383.857 212.719Z" fill="#263238"/>
<path d="M374.871 259.607C374.871 259.808 387.553 259.969 403.193 259.969C418.834 259.969 431.516 259.808 431.516 259.607C431.516 259.407 418.834 259.232 403.193 259.232C387.553 259.232 374.871 259.393 374.871 259.607Z" fill="#263238"/>
<path d="M372.567 272.692C372.567 272.893 385.758 273.054 402.028 273.054C418.298 273.054 431.488 272.893 431.488 272.692C431.488 272.491 418.298 272.317 402.028 272.317C385.758 272.317 372.567 272.491 372.567 272.692Z" fill="#263238"/>
<path d="M371.122 284.746C371.122 284.96 384.647 285.121 401.319 285.121C417.991 285.121 431.516 284.96 431.516 284.746C431.516 284.532 417.991 284.384 401.319 284.384C384.647 284.384 371.122 284.545 371.122 284.746Z" fill="#263238"/>
<path d="M305.211 297.937C305.211 298.138 333.734 298.299 368.912 298.299C404.091 298.299 432.627 298.138 432.627 297.937C432.627 297.737 404.104 297.562 368.912 297.562C333.72 297.562 305.211 297.737 305.211 297.937Z" fill="#263238"/>
<path d="M304.715 308.491C304.715 308.706 333.453 308.866 368.899 308.866C404.345 308.866 433.096 308.706 433.096 308.491C433.096 308.277 404.358 308.13 368.899 308.13C333.439 308.13 304.715 308.291 304.715 308.491Z" fill="#263238"/>
<path d="M373.29 321.509C373.29 321.723 387.016 321.884 403.956 321.884C420.896 321.884 434.635 321.723 434.635 321.509C434.635 321.295 420.909 321.147 403.956 321.147C387.003 321.147 373.29 321.308 373.29 321.509Z" fill="#263238"/>
<path d="M370.172 333.59C370.172 333.791 385.103 333.965 403.516 333.965C421.928 333.965 436.859 333.791 436.859 333.59C436.859 333.389 421.928 333.228 403.516 333.228C385.103 333.228 370.172 333.389 370.172 333.59Z" fill="#263238"/>
<path d="M426.949 336.791C427.164 336.791 427.324 313.366 427.324 284.478C427.324 255.59 427.164 232.166 426.949 232.166C426.735 232.166 426.588 255.59 426.588 284.478C426.588 313.366 426.748 336.791 426.949 336.791Z" fill="#263238"/>
<path d="M410.865 335.505C411.066 335.505 411.227 306.871 411.227 271.554C411.227 236.237 411.106 207.589 410.865 207.589C410.624 207.589 410.49 236.21 410.49 271.54C410.49 306.871 410.651 335.505 410.865 335.505Z" fill="#263238"/>
<path d="M393.095 333.589C393.296 333.589 393.457 305.987 393.457 271.982C393.457 237.978 393.296 210.375 393.095 210.375C392.895 210.375 392.721 237.978 392.721 271.982C392.721 305.987 392.881 333.589 393.095 333.589Z" fill="#263238"/>
<path d="M378.166 336.75C378.367 336.75 378.527 315.08 378.527 288.362C378.527 261.643 378.367 239.96 378.166 239.96C377.965 239.96 377.791 261.63 377.791 288.362C377.791 315.094 377.965 336.75 378.166 336.75Z" fill="#263238"/>
<path d="M362.351 289.353C362.177 290.918 362.128 292.494 362.204 294.067C362.204 296.974 362.204 300.978 362.364 305.398C362.525 309.817 362.606 313.835 362.739 316.728C362.752 318.302 362.877 319.873 363.114 321.429C363.289 319.868 363.339 318.296 363.262 316.728C363.262 313.822 363.262 309.817 363.101 305.384C362.94 300.951 362.86 296.947 362.726 294.041C362.73 292.47 362.605 290.903 362.351 289.353Z" fill="#263238"/>
<path d="M345.49 289.916C345.325 291.383 345.275 292.86 345.343 294.335C345.343 297.014 345.343 300.804 345.477 304.942C345.611 309.081 345.718 312.844 345.838 315.563C345.834 317.035 345.959 318.505 346.213 319.956C346.38 318.498 346.429 317.029 346.361 315.563C346.361 312.884 346.361 309.081 346.213 304.929C346.066 300.777 345.986 297.027 345.852 294.308C345.864 292.836 345.743 291.366 345.49 289.916Z" fill="#263238"/>
<path d="M328.724 289.621C328.541 291.037 328.487 292.467 328.563 293.893C328.563 296.572 328.563 300.174 328.697 304.192C328.831 308.21 328.925 311.853 329.059 314.478C329.046 315.91 329.167 317.34 329.421 318.75C329.588 317.337 329.642 315.913 329.581 314.491C329.581 311.813 329.581 308.21 329.434 304.192C329.287 300.174 329.206 296.518 329.086 293.893C329.082 292.461 328.961 291.032 328.724 289.621Z" fill="#263238"/>
<path d="M311.893 289.152C311.709 290.523 311.655 291.909 311.733 293.29C311.733 295.848 311.733 299.384 311.867 303.281C312.001 307.179 312.081 310.714 312.215 313.259C312.212 314.646 312.328 316.031 312.563 317.397C312.749 316.026 312.807 314.641 312.737 313.259C312.737 310.701 312.737 307.165 312.603 303.268C312.469 299.371 312.376 295.822 312.255 293.277C312.26 291.894 312.139 290.513 311.893 289.152Z" fill="#263238"/>
<path d="M376.41 295.406C375.198 292.43 372.993 289.964 370.17 288.429C371.153 289.643 372.213 290.793 373.344 291.871C374.291 293.112 375.315 294.293 376.41 295.406Z" fill="#263238"/>
<path d="M372.568 295.728C372.848 294.382 372.746 292.985 372.273 291.695C371.799 290.405 370.974 289.273 369.89 288.429C369.729 288.576 370.854 289.942 371.577 291.951C372.3 293.96 372.274 295.728 372.568 295.728Z" fill="#263238"/>
<path d="M303.979 315.965C304.729 311.716 305.239 307.427 305.505 303.121C306.014 298.831 306.282 294.516 306.309 290.197C305.541 294.448 305.027 298.741 304.769 303.054C304.259 307.339 303.996 311.65 303.979 315.965Z" fill="#263238"/>
<path d="M303.136 295.259C303.136 295.353 303.511 295.621 303.564 296.291C303.576 296.468 303.553 296.645 303.495 296.813C303.438 296.981 303.347 297.135 303.23 297.268C303.079 297.403 302.891 297.49 302.69 297.516C302.489 297.542 302.285 297.507 302.105 297.416C301.916 297.343 301.752 297.217 301.633 297.053C301.514 296.889 301.445 296.694 301.435 296.491C301.453 296.314 301.506 296.143 301.591 295.986C301.676 295.83 301.792 295.692 301.931 295.581C302.453 295.166 302.948 295.299 302.975 295.192C303.002 295.085 302.48 294.71 301.636 295.192C301.389 295.325 301.179 295.516 301.025 295.75C300.871 295.984 300.777 296.253 300.752 296.532C300.733 296.879 300.824 297.224 301.011 297.517C301.199 297.81 301.474 298.037 301.797 298.166C302.115 298.315 302.471 298.362 302.817 298.3C303.162 298.238 303.48 298.069 303.725 297.817C303.9 297.606 304.022 297.356 304.08 297.088C304.138 296.82 304.131 296.542 304.06 296.277C303.819 295.299 303.123 295.165 303.136 295.259Z" fill="#263238"/>
<path d="M370.652 289.286H370.317L369.34 289.366C368.469 289.46 367.184 289.541 365.496 289.594C362.122 289.728 357.167 289.795 350.86 289.741C338.259 289.661 320.248 289.192 298.635 288.402H298.327V288.71C297.898 297.054 297.443 306.121 296.988 315.737V316.045H297.269C300.697 316.688 304.165 316.956 307.714 317.317L318.534 318.255C325.886 318.858 333.452 319.42 341.151 319.969L369.46 321.871C377.669 321.349 385.637 318.402 391.207 312.991C393.946 310.382 396.096 307.217 397.515 303.71C398.846 300.4 399.907 296.987 400.688 293.505C403.996 280.112 406.045 267.911 407.719 257.786C408.522 252.724 409.205 248.157 409.781 244.166C410.391 240.769 410.789 237.339 410.973 233.893C411.082 231.706 410.62 229.527 409.633 227.572C409.295 226.904 408.842 226.301 408.294 225.791C408.763 226.368 409.18 226.987 409.54 227.639C410.453 229.591 410.859 231.742 410.718 233.893C410.476 237.323 410.029 240.736 409.379 244.112C408.75 248.13 408.04 252.657 407.21 257.719C405.522 267.817 403.38 279.938 400.045 293.344C399.255 296.793 398.194 300.174 396.872 303.456C395.478 306.876 393.368 309.958 390.685 312.496C385.329 317.759 377.441 320.639 369.38 321.161L341.084 319.232L318.48 317.532L307.66 316.607C304.138 316.246 300.603 315.978 297.322 315.362L297.59 315.724C298.045 306.148 298.474 297.041 298.929 288.683L298.595 288.991C320.194 289.782 338.205 290.157 350.82 290.13C357.127 290.13 362.082 290.009 365.456 289.808C367.144 289.715 368.442 289.608 369.313 289.474L370.29 289.353C370.413 289.347 370.535 289.325 370.652 289.286Z" fill="#263238"/>
<path d="M370.653 289.286C370.948 288.608 371.181 287.904 371.349 287.183C371.738 285.844 372.273 283.835 372.916 281.371C374.255 276.456 375.795 269.612 377.509 262.058C379.223 254.505 380.79 247.661 381.968 242.719L383.308 236.866C383.517 236.159 383.656 235.432 383.723 234.697C383.435 235.378 383.202 236.081 383.026 236.799C382.611 238.139 382.076 240.134 381.419 242.599C380.08 247.5 378.447 254.331 376.733 261.898C375.018 269.465 373.612 276.174 372.407 281.25C371.872 283.634 371.416 285.603 371.068 287.116C370.876 287.828 370.737 288.553 370.653 289.286Z" fill="#263238"/>
<path d="M383.777 211.353C383.765 211.848 383.815 212.343 383.924 212.826C384.058 213.777 384.273 215.13 384.567 216.844C384.695 217.779 384.883 218.705 385.13 219.616C385.211 219.919 385.363 220.197 385.572 220.43C385.782 220.663 386.043 220.843 386.335 220.956C386.923 221.111 387.541 221.111 388.129 220.956C390.339 220.5 392.749 219.911 395.267 219.228C400.288 217.889 404.761 216.402 408.015 215.398L411.858 214.192C412.325 214.075 412.774 213.899 413.197 213.67C412.702 213.684 412.211 213.766 411.738 213.911C410.8 214.125 409.461 214.447 407.814 214.902C404.52 215.773 400.02 217.139 395.012 218.518C392.508 219.201 390.124 219.858 387.928 220.299C387.457 220.453 386.955 220.485 386.469 220.393C386.269 220.32 386.09 220.201 385.945 220.045C385.801 219.889 385.696 219.701 385.638 219.496C385.344 218.639 385.223 217.648 385.022 216.817C384.674 215.157 384.366 213.817 384.152 212.88C384.101 212.355 383.975 211.841 383.777 211.353Z" fill="#263238"/>
<path d="M407.211 396.764L397.851 523.822L393.94 522.911L395.4 399.442L407.211 396.764Z" fill="#263238"/>
<path d="M446.875 401.183L475.305 523.674H470.163L429.467 401.183H446.875Z" fill="#263238"/>
<path d="M371.684 401.183L332.903 523.674H328.752L359.565 401.183H371.684Z" fill="#263238"/>
<path d="M366.488 409.406L453.396 466.205V469.313L364.065 409.406H366.488Z" fill="#263238"/>
<path d="M440.234 409.407L346.068 472.782V467.933L437.476 406.634L440.234 409.407Z" fill="#263238"/>
<path d="M459.865 403.286L347.888 401.264C346.885 401.245 345.898 401.015 344.989 400.591C344.08 400.166 343.271 399.555 342.613 398.797C341.955 398.04 341.464 397.153 341.171 396.193C340.878 395.234 340.79 394.224 340.912 393.228C341.114 391.466 341.966 389.842 343.3 388.673C344.634 387.505 346.356 386.875 348.129 386.906L461.699 388.728L459.865 403.286Z" fill="#0D507D"/>
<g opacity="0.2">
<path d="M459.865 403.286L347.888 401.264C346.885 401.245 345.898 401.015 344.989 400.591C344.08 400.166 343.271 399.555 342.613 398.797C341.955 398.04 341.464 397.153 341.171 396.193C340.878 395.234 340.79 394.224 340.912 393.228C341.114 391.466 341.966 389.842 343.3 388.673C344.634 387.505 346.356 386.875 348.129 386.906L461.699 388.728L459.865 403.286Z" fill="black"/>
</g>
<path d="M471.274 316.715L459.972 403.286L371.684 401.183L371.912 348.603C371.881 346.537 372.285 344.487 373.097 342.587C373.91 340.687 375.113 338.98 376.628 337.575C378.144 336.171 379.938 335.101 381.894 334.435C383.85 333.769 385.924 333.522 387.981 333.71L455.298 339.79L464.163 248.036L473.109 247.273C474.043 247.204 474.981 247.345 475.853 247.686C476.726 248.026 477.512 248.557 478.154 249.24C478.795 249.922 479.276 250.74 479.562 251.632C479.847 252.524 479.93 253.469 479.804 254.398L471.274 316.715Z" fill="#0D507D"/>
</g>
<defs>
<clipPath id="clip0_192_1586">
<rect width="519" height="525" fill="white" transform="matrix(-1 0 0 1 519 0)"/>
</clipPath>
</defs>
</svg>
